<?xml version="1.0" encoding="utf-8"?>
<!-- Generator: Adobe Illustrator 24.3.0, SVG Export Plug-In . SVG Version: 6.00 Build 0)  -->
<svg version="1.1" id="Layer_1" xmlns="http://www.w3.org/2000/svg" xmlns:xlink="http://www.w3.org/1999/xlink" x="0px" y="0px"
	 viewBox="0 0 131.1 114.1" style="enable-background:new 0 0 131.1 114.1;" xml:space="preserve">
<style type="text/css">
	.st0{fill:#D6368B;}
	.st1{fill:#6F3A8D;}
</style>
<g id="Grupo_489" transform="translate(-76.929 -88.033)">
	<g id="Grupo_487" transform="translate(76.929 158.046)">
		<g id="Grupo_483" transform="translate(0)">
			<g id="Grupo_482">
				<path id="Trazado_1385" d="M34.1,3.8h0.7v3.1h3.9V3.8h0.7v7h-0.7V7.5h-3.9v3.3h-0.7V3.8z"/>
				<path id="Trazado_1386" d="M48.8,7.3c0-0.5,0.1-1,0.3-1.5c0.2-0.4,0.4-0.8,0.7-1.2c0.3-0.3,0.7-0.6,1.1-0.8c0.9-0.4,2-0.4,2.9,0
					c0.4,0.2,0.8,0.4,1.1,0.8c0.3,0.3,0.6,0.7,0.7,1.2c0.4,1,0.4,2,0,3c-0.2,0.4-0.4,0.8-0.7,1.2c-0.3,0.3-0.7,0.6-1.1,0.8
					c-0.9,0.4-2,0.4-2.9,0c-0.4-0.2-0.8-0.4-1.1-0.8c-0.3-0.3-0.6-0.7-0.7-1.2C48.9,8.3,48.8,7.8,48.8,7.3z M49.4,7.3
					c0,0.4,0.1,0.8,0.2,1.2c0.1,0.4,0.3,0.7,0.6,1c0.3,0.3,0.6,0.5,0.9,0.7c0.8,0.3,1.7,0.3,2.5,0c0.4-0.1,0.7-0.4,0.9-0.7
					c0.3-0.3,0.5-0.6,0.6-1c0.3-0.8,0.3-1.6,0-2.4c-0.1-0.4-0.3-0.7-0.6-1c-0.3-0.3-0.6-0.5-0.9-0.7c-0.8-0.3-1.7-0.3-2.5,0
					c-0.4,0.1-0.7,0.4-0.9,0.7c-0.3,0.3-0.5,0.6-0.6,1C49.5,6.5,49.4,6.9,49.4,7.3z"/>
				<path id="Trazado_1387" d="M67.1,4.4h-2.4V3.8h5.4v0.6h-2.4v6.4h-0.7L67.1,4.4z"/>
				<path id="Trazado_1388" d="M79.3,3.8h4.3v0.6h-3.6v2.5h3.4v0.6h-3.4v2.7h3.8v0.6h-4.4V3.8z"/>
				<path id="Trazado_1389" d="M93.2,3.8h0.7v6.4h3.3v0.6h-3.9L93.2,3.8z"/>
			</g>
		</g>
		<g id="Grupo_485" transform="translate(0 10.285)">
			<g id="Grupo_484">
				<path id="Trazado_1390" d="M38.8,8.3l3-4.3h1.4l-3.7,5.1l4,5.7H42l-3.3-4.9l-3.3,4.9h-1.4L38,9.1L34.4,4h1.5L38.8,8.3z"/>
				<path id="Trazado_1391" d="M55.1,13.1c-0.2,0.3-0.4,0.5-0.7,0.8c-0.3,0.3-0.6,0.5-0.9,0.6c-0.4,0.2-0.7,0.3-1.1,0.4
					C51.9,15,51.5,15,51.1,15c-0.8,0-1.5-0.1-2.2-0.4c-1.4-0.5-2.4-1.6-3-3c-0.6-1.5-0.6-3.1,0-4.5c0.5-1.4,1.6-2.4,3-3
					c0.7-0.3,1.5-0.4,2.2-0.4c0.7,0,1.4,0.1,2,0.4c0.7,0.3,1.3,0.7,1.7,1.3l-1,0.7c-0.1-0.2-0.3-0.4-0.5-0.5
					c-0.2-0.2-0.4-0.3-0.7-0.5c-0.3-0.1-0.5-0.2-0.8-0.3c-0.3-0.1-0.6-0.1-0.9-0.1c-0.6,0-1.3,0.1-1.9,0.4c-0.5,0.2-1,0.6-1.4,1
					c-0.4,0.4-0.7,0.9-0.9,1.5c-0.4,1.1-0.4,2.4,0,3.6c0.2,0.5,0.5,1.1,0.9,1.5c0.4,0.4,0.9,0.8,1.4,1c0.6,0.3,1.2,0.4,1.9,0.4
					c0.3,0,0.6,0,0.8-0.1c0.3-0.1,0.6-0.1,0.8-0.3c0.3-0.1,0.5-0.3,0.8-0.5c0.3-0.2,0.5-0.5,0.7-0.8L55.1,13.1z"/>
				<path id="Trazado_1392" d="M57.9,14.8h-1.3L61.3,4h1.1L67,14.8h-1.3l-1.2-2.8h-5.5L57.9,14.8z M59.5,10.9h4.7l-2.3-5.7
					L59.5,10.9z"/>
				<path id="Trazado_1393" d="M70.7,14.8h-1.1V4H73c0.9-0.1,1.8,0.2,2.6,0.7c0.7,0.5,1,1.3,1,2.2c0,0.7-0.2,1.4-0.7,1.9
					c-0.5,0.5-1.3,0.9-2,0.9l3.1,5.1h-1.3l-3-5h-1.8V14.8z M70.7,8.7h2c0.4,0,0.8,0,1.2-0.2c0.3-0.1,0.6-0.2,0.8-0.4
					c0.2-0.2,0.3-0.4,0.4-0.6c0.1-0.2,0.1-0.5,0.1-0.7c0-0.2,0-0.5-0.1-0.7c-0.1-0.2-0.2-0.4-0.4-0.6c-0.2-0.2-0.5-0.3-0.8-0.4
					C73.5,5,73.1,5,72.7,5h-2V8.7z"/>
				<path id="Trazado_1394" d="M80.9,13.8h5.8v1h-6.9V4h6.7v1h-5.6v3.7h5.2v1h-5.2L80.9,13.8z"/>
				<path id="Trazado_1395" d="M93.5,14.8h-1.1V5h-3.6V4h8.3v1h-3.6L93.5,14.8z"/>
			</g>
		</g>
		<g id="Grupo_486" transform="translate(4.756 24.498)">
			<path id="Trazado_1396" d="M49.6,16.4c0,0-0.1-0.1-0.1-0.1c-0.1-0.1-0.2-0.3-0.3-0.3c-0.4-0.1-0.5-0.5-0.4-0.9c0,0,0,0,0,0
				c0.1-0.2,0.1-0.5,0.2-0.7c0.1-0.5,0.3-1,0.4-1.5c0.1-0.4,0.2-0.8,0.2-1.1c0-0.2,0.1-0.3,0.1-0.5c0,0,0-0.1,0-0.1c0,0-0.1,0-0.1,0
				c0,0-0.1,0-0.1,0c-0.1,0-0.1,0-0.2,0c-0.2,0-0.4,0.1-0.8,0.5c0,0-0.1,0-0.1-0.1c0-0.1,0-0.1,0-0.2c0-0.1-0.1-0.1-0.2-0.1
				c0,0-0.1,0-0.1,0h0c0,0-0.1,0-0.1,0c-0.3,0-0.6,0-0.9,0.1c-0.2,0-0.3,0-0.5,0.1c-0.1,0-0.2,0-0.2,0.1c-0.1,0-0.1,0.1-0.2,0.1
				c0,0-0.1,0-0.1,0c0,0-0.1,0-0.1,0c-0.1,0-0.1,0-0.2,0c0,0-0.1,0-0.1,0l-0.5,0.1c-0.3,0-0.6,0.1-0.7,0.1h0c0,0-0.1,0-0.1,0
				c0,0,0,0-0.1,0c0,0-0.1,0-0.1,0c0,0-0.1,0-0.1,0h0c-0.1,0-0.2,0-0.3,0c-0.2,0-0.5,0.1-0.7,0.2l0,0C43,12,43,12,43,12.1l-0.1,0.5
				c0,0,0,0.1,0,0.1c0.1,0.4,0.1,0.7,0.1,1.1c0,0.3-0.1,0.5-0.4,0.6c-0.1,0-0.2,0-0.3,0c-0.2,0-0.5,0-0.7-0.1
				c-0.4,0-0.6-0.4-0.6-0.7c0,0,0,0,0,0c0-0.3,0-0.7-0.1-1c0,0-0.1-0.1-0.1-0.1l-0.1,0c-0.1,0-0.2,0-0.2,0h0c0,0-0.1,0-0.1,0
				c0,0-0.1,0-0.1,0l-0.1,0c-0.1,0.1-0.1,0.1-0.2,0.1c0,0,0,0-0.1,0c0,0,0,0-0.1,0c-0.1,0-0.2,0-0.3,0.1c0,0-0.1,0-0.1,0.1
				c-0.1,0-0.2,0-0.3,0h-0.1c-0.4,0-0.7,0.1-1,0.2c-0.1,0-0.2,0-0.3,0c-0.1,0-0.3,0-0.4,0.1l-0.1,0c-0.1,0-0.1,0-0.2,0l-0.1,0.1
				L37,13.1c0-0.1-0.1-0.1-0.2-0.1l0,0c-0.1,0-0.1,0.1-0.2,0.1c-0.3,0.4-0.6,0.9-0.9,1.3l-0.1,0.1c0,0.1-0.1,0.1-0.1,0.2l0,0
				c0,0,0,0,0,0.1c0,0,0,0,0,0l0,0c0,0,0,0.1-0.1,0.1h0c-0.2,0-0.3,0.1-0.4,0.2c-0.1,0.1-0.2,0.2-0.3,0.2c0,0-0.1,0-0.1,0
				c0,0-0.1,0-0.1,0l0,0c-0.1-0.1-0.2-0.2-0.4-0.2c0,0-0.1,0-0.1,0c0-0.3,0-0.5,0.2-0.7c0.1-0.1,0.1-0.2,0.2-0.3
				c0-0.2,0.1-0.5,0.2-0.7c0-0.1,0.1-0.1,0.1-0.2c0.1-0.3,0.3-0.7,0.6-0.9c0.1-0.2,0.2-0.3,0.3-0.5c0.1-0.2,0.2-0.3,0.3-0.5
				c0,0,0.1-0.1,0-0.1c0-0.1,0-0.1,0.1-0.2c0-0.1,0.1-0.1,0.1-0.2c0-0.2,0.1-0.4,0.3-0.5c0,0,0.1-0.1,0.1-0.2c0-0.2,0.1-0.3,0.3-0.5
				c0,0,0.1-0.1,0.1-0.1c0,0,0.1-0.1,0.1-0.1c0,0,0-0.1,0-0.1c0-0.1,0-0.1,0.1-0.2c0.1,0,0.1-0.1,0.1-0.1c0,0,0,0,0-0.1
				c0,0,0-0.1,0-0.1c0-0.1,0.1-0.1,0.1-0.2c0.2-0.3,0.4-0.6,0.4-0.9c0,0,0-0.1,0-0.1c0.1-0.2,0.2-0.3,0.3-0.5
				c0.1-0.2,0.2-0.4,0.4-0.6c0.1-0.1,0.1-0.2,0.2-0.3C38.7,6,38.8,5.7,39,5.5c0.1-0.2,0.3-0.4,0.4-0.6l0.2-0.3h0c0,0,0.1,0,0.1-0.1
				c0,0,0-0.1,0-0.1l0-0.1L40,4.2l0.1,0.1c0.1,0.1,0.2,0.1,0.3,0.2c0.1,0,0.1,0.1,0.2,0.1c0.1,0,0.2-0.1,0.3-0.2
				c0.1-0.1,0.2-0.1,0.3-0.1c0.1,0,0.2,0,0.2,0c0.1,0,0.1,0,0.2,0c0.1,0,0.2,0,0.3,0c0.1,0,0.2,0,0.3,0c0.1,0,0.2,0,0.2,0.1
				c0.1,0,0.2,0.1,0.3,0.2L43,4.5l0,0.1c0,0,0,0.1,0,0.1l0,0c0,0,0.1,0.1,0.1,0.1c0.3,0.2,0.3,0.5,0.3,0.8c0,0.2,0,0.4,0,0.6
				c0,0.1,0,0.2,0,0.3l-0.1,0c0,0-0.1,0.1-0.1,0.2l0,0.1c0,0.2,0,0.3,0.1,0.5c0,0.2,0,0.3,0,0.5l0,0c0,0.1,0,0.2,0,0.3
				c0,0.1,0,0.1,0,0.2l-0.2,0.4c0,0,0,0.1,0,0.2c0.2,0.2,0.1,0.5,0,0.6c0,0,0,0,0,0c0,0,0,0.1,0,0.1l0,0.4c0,0.1,0.1,0.1,0.2,0.1h0
				c0.3-0.1,0.7-0.1,1.4-0.2l0.9-0.1c0.1,0,0.3-0.1,0.4-0.1c0.1,0,0.3-0.1,0.4-0.1c0,0,0.1,0,0.1,0c0.1,0,0.1,0,0.2,0
				c0.1,0,0.1,0,0.2,0c0,0,0.1,0,0.1,0l0.4-0.1c0,0,0.1,0,0.1,0c0.1,0,0.1,0,0.2,0c0.1,0,0.1,0,0.2,0c0.1,0,0.1,0,0.2,0
				c0.5-0.1,0.9-0.2,1.3-0.2c0.2,0,0.4-0.1,0.5-0.1c0.1,0,0.1-0.1,0.1-0.1c0-0.1,0-0.2,0.1-0.3c0.1-0.3,0.1-0.6,0.2-0.9
				c0-0.1,0-0.1,0-0.2c0-0.1,0.1-0.3,0.1-0.4c0,0,0-0.1,0-0.1c0-0.3,0.1-0.6,0.2-0.8c0.1-0.1,0.1-0.3,0.2-0.4c0,0,0-0.1,0-0.1
				l-0.2-0.7c0-0.1,0-0.2,0.1-0.2c0.1,0,0.2-0.1,0.3-0.1c0.4-0.1,0.8-0.3,1.2-0.5c0.1,0,0.1,0,0.2,0c0.1,0,0.2,0,0.4-0.1
				c0.1,0,0.2-0.1,0.4-0.1c0.1,0,0.2,0,0.2,0.1c0,0,0,0,0.1,0c0,0,0.1,0,0.1,0C54,4,54.4,4,54.8,4c0.1,0,0.2,0,0.2,0
				c0.2,0,0.4,0,0.6-0.1l0.1,0c0.1,0,0.2,0,0.3,0c0.2,0,0.3,0,0.5,0h0l0.1,0c0,0,0.1,0,0.1,0c0.1,0,0.1,0,0.2,0
				c0.1,0,0.2-0.1,0.3-0.1c0.3,0,0.5,0.1,0.7,0.3l0,0c0,0.1,0.1,0.2,0.2,0.3c0.1,0.1,0.1,0.2,0.1,0.3c0,0.1,0,0.2,0.1,0.3
				c0,0,0,0.1,0.1,0.1l0,0c0,0.1-0.1,0.1-0.1,0.2c0,0.2,0,0.5,0.1,0.7c0,0.1,0,0.2,0,0.3c0,0.2,0,0.3,0,0.5c0,0.1,0,0.1,0,0.2l0,0.1
				c0.1,0.4,0,0.7,0,1.1c-0.1,0.5-0.1,1,0,1.4l0,0c0,0.1,0,0.1,0,0.2c-0.1,0,0,0.1,0,0.2v0c0,0.1,0,0.1,0,0.2c0,0-0.1,0-0.1,0
				c-0.3,0.1-0.6,0.1-0.9,0.1c-0.1,0-0.3,0-0.3,0.2c0,0.1,0,0.2,0,0.2c0.1,0.1,0.2,0.1,0.3,0.1l0.1,0c0,0,0.1,0,0.1,0
				c0.1,0,0.1,0.1,0.1,0.1c0,0.1,0,0.1,0.1,0.2l0.1,0c0.1,0,0.2,0.1,0.3,0.2c0.3,0.2,0.6,0.5,0.9,0.7c0,0,0.1,0.1,0.1,0.1l0,0
				c0,0,0.1,0.1,0.1,0.1c0.4,0,0.8,0.3,1.1,0.6c0,0,0,0,0.1,0.1c0.1,0,0.1,0,0.2,0.1c0.3,0.1,0.5,0.2,0.7,0.5c0,0,0.1,0.1,0.1,0.1
				c0.1,0,0.3,0.1,0.7,0.6l0,0.1c0,0.1,0,0.1,0.1,0.2l0.2,0.1c0,0.2-0.1,0.4-0.3,0.6c-0.1,0.1-0.3,0.2-0.4,0.2c0,0-0.1,0-0.1,0
				c-0.8-0.1-1.5-0.4-2.2-0.8c-0.1-0.1-0.2-0.1-0.3-0.2c-0.1,0-0.2-0.1-0.3-0.1l-0.2-0.1c-0.3-0.2-0.6-0.4-0.9-0.6
				c-0.2-0.1-0.3-0.2-0.5-0.4c-0.1-0.1-0.2-0.2-0.4-0.3c-0.2-0.2-0.4-0.3-0.6-0.4l-0.3-0.2c0,0,0,0,0,0l0,0
				c-0.3-0.3-0.7-0.6-1.1-0.7c-0.1,0-0.2-0.1-0.3-0.1c-0.2-0.1-0.4-0.2-0.5-0.5c0,0,0-0.1-0.1-0.1c0,0-0.1,0-0.1-0.1
				c-0.1-0.1-0.2-0.1-0.4-0.1h0c-0.1,0-0.1,0-0.2,0c-0.1,0-0.1,0-0.2,0c-0.1,0-0.1,0-0.2,0c0,0-0.1,0-0.1,0c-0.1,0-0.1,0-0.2,0
				c-0.1,0-0.1,0-0.2,0c0,0,0,0-0.1,0c-0.1,0-0.3,0.1-0.4,0.1l-0.1,0c0,0-0.1,0-0.1,0.1l-0.2,0.4c0,0,0,0.1,0,0.1l0,0
				c0,0.1,0,0.1,0,0.2c-0.1,0.2-0.1,0.4-0.1,0.6c0,0.1,0,0.2,0,0.2c0,0.2-0.1,0.4-0.2,0.6c-0.1,0.2-0.1,0.4-0.1,0.5c0,0,0,0.1,0,0.1
				l0,0L51,13.7c-0.1,0-0.1,0.1-0.1,0.1c0,0.1,0,0.1,0,0.2c0,0.1,0,0.3,0,0.4c-0.1,0.2-0.1,0.5,0,0.7l-0.5,1
				c-0.1,0.2-0.2,0.3-0.4,0.3C49.9,16.4,49.7,16.4,49.6,16.4z M41.6,6.1C41.6,6.1,41.6,6.1,41.6,6.1L41.6,6.1
				c-0.2,0-0.3,0.1-0.4,0.1c-0.2,0-0.3,0.1-0.4,0.2c-0.1,0.1-0.2,0.1-0.3,0.2C40.3,6.8,40.1,7,40,7.2c-0.1,0.3-0.3,0.6-0.5,0.9
				c-0.2,0.2-0.3,0.5-0.4,0.7c-0.2,0.4-0.4,0.7-0.6,1c-0.1,0.2-0.2,0.3-0.3,0.5c-0.1,0.2-0.2,0.3-0.3,0.5l-0.1,0.2c0,0,0,0.1,0,0.2
				c0,0,0.1,0.1,0.1,0.1c0,0,0,0,0,0c0.3-0.1,0.6-0.1,1-0.2c0.7-0.1,1.4-0.3,2.1-0.5c0,0,0.1,0,0.1-0.1c0.1-0.3,0.2-0.7,0.2-1
				c0-0.3,0.1-0.6,0.2-0.9c0,0,0,0,0,0l0-0.2c0-0.2,0-0.3,0.1-0.5c0,0,0-0.1,0-0.1c0-0.1,0-0.2,0-0.2c0-0.3,0-0.7,0-1
				c0-0.1,0-0.1,0-0.2v0C41.7,6.1,41.7,6,41.6,6.1L41.6,6.1z M56.1,5.3c-0.2,0-0.3,0-0.4,0c-0.5,0-1,0.1-1.5,0.2
				c-0.4,0.1-0.8,0.2-1.3,0.2l-0.5,0.1c-0.1,0-0.1,0.1-0.1,0.1c0,0.1,0,0.1,0,0.2c0,0.2,0,0.3,0,0.5c0,0.1,0,0.2,0,0.3
				c0,0.2,0,0.3,0,0.5c0,0,0,0.1,0,0.1c0.1,0.1,0.1,0.3,0,0.4c0,0.1,0,0.1-0.1,0.2c0,0.1,0,0.3,0,0.4c0,0,0,0.1,0,0.1
				c0,0,0,0.1,0,0.1c0,0,0.1,0,0.1,0h0L53,8.9c1.2-0.1,2.4-0.2,3.6-0.3c0.1,0,0.1-0.1,0.1-0.2c0-0.4,0-0.8,0.1-1.2
				c0-0.6,0.1-1.2,0.1-1.8c0-0.1-0.1-0.2-0.2-0.2h-0.3C56.3,5.3,56.2,5.3,56.1,5.3L56.1,5.3z"/>
			<path id="Trazado_1397" d="M79.5,15.7c-0.6,0-1.3,0-1.9-0.2c-0.2-0.1-0.5-0.2-0.7-0.3c-0.4-0.2-0.7-0.5-0.9-0.9
				c-0.2-0.3-0.3-0.6-0.3-1c0-0.2,0-0.4,0-0.6c0-0.1,0-0.1,0-0.2c0-0.1-0.1-0.2-0.1-0.2h-0.1c-0.1,0-0.2,0-0.2,0l-0.2,0
				c-0.6,0-1.3-0.1-1.9-0.3L73,12c-0.2-0.1-0.4-0.2-0.6-0.4c-0.2-0.1-0.3-0.4-0.1-0.6c0,0,0-0.1,0-0.1l-0.1-0.2
				c0-0.1,0.3-0.2,0.7-0.2c0.2,0,0.3,0,0.5,0.1c0,0,0,0,0,0c0,0,0.1,0,0.1,0c0,0,0.1,0,0.3,0c0.6,0,1.1,0.1,1.7,0.2l0,0
				c0.1,0,0.2,0,0.3,0.1l0.1,0c0.1,0,0.2,0,0.2-0.1l0.1-0.2c0.1-0.3,0.2-0.5,0.3-0.8c0,0,0,0,0-0.1c0-0.1,0.1-0.1,0.1-0.2
				c0.2-0.2,0.3-0.5,0.4-0.7c0.1-0.2,0.1-0.3,0.2-0.5c0.1-0.1,0.1-0.2,0.2-0.3c0.3-0.5,0.6-1,0.9-1.5c0-0.1,0.1-0.1,0.1-0.2l0,0
				c0,0,0,0,0-0.1c0,0,0,0,0-0.1c0.2-0.2,0.4-0.5,0.6-0.7l0.1-0.1c0.1-0.2,0.3-0.3,0.4-0.4c0.3-0.3,0.7-0.5,1.2-0.5
				c0.1,0,0.2,0,0.3,0c0.4,0,0.8,0.1,1.1,0.3l0,0c0.1,0.1,0.2,0.1,0.3,0.2c0,0.1,0.1,0.1,0.1,0.2c0.2,0.2,0.4,0.5,0.3,0.9
				c0,0.7-0.1,1.4-0.3,2c-0.3,0.8-0.7,1.4-1.4,2C81,9.8,80.9,9.9,80.8,10c-0.1,0.1-0.3,0.3-0.4,0.4c-0.1,0-0.1,0.1-0.2,0.2
				c-0.3,0.2-0.6,0.4-1,0.6c-0.2,0.1-0.4,0.2-0.6,0.3c-0.2,0.2-0.5,0.3-0.8,0.3c-0.1,0-0.1,0.1-0.1,0.1l-0.2,0.9c0,0,0,0.1,0,0.1
				l0.1,0.1l-0.1,0.2l0,0c0,0,0,0.1,0,0.1l0,0c0.1,0.1,0.3,0.2,0.4,0.2l0,0c0.1,0,0.1,0,0.2-0.1c0,0,0,0,0,0c0,0,0,0,0,0
				c0.1,0.1,0.3,0.1,0.4,0.1c0.3,0,0.6-0.1,0.8-0.2c0.1,0.1,0.2,0.1,0.3,0.1c0.1,0,0.3-0.1,0.4-0.1l0.1,0.1c0,0,0.1,0,0.1,0h0
				l0.4-0.1c0.1,0,0.1,0,0.1-0.1c0-0.1,0.2-0.2,0.3-0.3h0h0.1c0.2,0,0.3,0,0.5-0.1c0.1-0.1,0.3-0.1,0.4-0.1c0.1,0,0.1,0,0.1-0.1
				c0.1-0.2,0.2-0.3,0.3-0.3h0c0,0,0.1,0,0.1-0.1c0.1,0,0.1-0.1,0.2-0.1c0.1,0,0.2-0.1,0.3-0.2l0.1,0c0,0,0,0,0,0
				c0.1,0,0.1,0,0.1-0.1l0.1-0.2c0.2,0,0.4-0.1,0.6-0.3c0.1-0.1,0.1-0.1,0.2-0.2c0,0,0,0,0,0c0,0,0.1,0,0.1,0l0.1,0h0
				c0.1,0,0.1,0,0.1-0.1c0.3-0.4,0.8-0.7,1.3-0.8h0c0,0,0,0,0,0c0.7,0.4,0.7,0.7,0.3,1.5c-0.3,0.5-0.7,1-1.2,1.4
				c-0.4,0.3-0.7,0.5-1.1,0.8c-0.1,0.1-0.2,0.1-0.3,0.2c-0.2,0.1-0.3,0.1-0.4,0.2c-0.1,0.1-0.2,0.1-0.3,0.1c-0.1,0-0.2,0.1-0.3,0.2
				c-0.1,0.1-0.2,0.1-0.3,0.1c-0.1,0-0.2,0.1-0.3,0.1c-0.2,0.1-0.5,0.2-0.8,0.3c-0.2,0-0.4,0.1-0.6,0.2c-0.3,0.1-0.6,0.1-0.9,0.1
				L79.5,15.7L79.5,15.7z M80.9,5.6L80.9,5.6c-0.6,0.1-0.6,0.2-0.7,0.5c0,0.1,0,0.1-0.1,0.2c0,0,0,0.1-0.1,0.1
				c-0.2,0.1-0.3,0.2-0.3,0.3c0,0,0,0.1,0,0.1c0,0,0,0.1,0,0.1c0,0.1,0,0.1-0.1,0.1c-0.1,0.1-0.2,0.2-0.3,0.4c0,0.1-0.1,0.2-0.2,0.3
				c0,0,0,0.1-0.1,0.1c-0.1,0.3-0.2,0.6-0.3,0.8c-0.1,0.1-0.1,0.2-0.2,0.3c0,0,0,0.1,0,0.1c0,0,0,0.1,0.1,0.1l0.2,0.1
				c0.1,0,0.2,0,0.2-0.1c0,0,0-0.1,0.1-0.1c0-0.1,0.1-0.2,0.2-0.2c0.2-0.1,0.4-0.3,0.5-0.5C80,8.5,80,8.4,80.1,8.3
				c0.3-0.3,0.5-0.5,0.7-0.7c0.1-0.1,0.2-0.2,0.2-0.4c0-0.1,0.1-0.3,0.1-0.4c0-0.2,0.1-0.3,0.1-0.5c0.1-0.2,0.1-0.4-0.1-0.6
				C81.1,5.7,81,5.7,80.9,5.6L80.9,5.6z"/>
			<path id="Trazado_1398" d="M64.7,16c-0.2,0-0.5-0.1-0.7-0.2c-0.2-0.1-0.3-0.3-0.3-0.6c-0.1-0.7-0.1-1.4-0.1-2.2l0-0.3
				c0-0.2,0-0.5,0.1-0.7c0-0.2,0-0.3,0.1-0.5c0-0.1,0-0.1,0-0.2c0-0.2,0-0.3,0-0.5c0-0.1,0-0.1,0-0.2c0.1-0.1,0.1-0.3,0-0.4
				c0-0.1,0-0.1,0.1-0.2c0-0.1,0.1-0.1,0.1-0.2c0-0.2,0.1-0.5,0.1-0.7c0-0.1,0-0.2,0-0.3c0-0.2,0.1-0.9,0.1-0.9c0-0.1,0-0.1-0.1-0.2
				l-0.1,0c-0.1,0-0.2-0.1-0.3-0.1c-0.4-0.1-0.8-0.1-1.2-0.1c-0.2,0-0.5-0.1-0.7-0.1h0c-0.1,0-0.1,0-0.2,0c-0.2,0-0.4,0-0.6,0.2
				l-0.7-0.4c0-0.1,0-0.1,0-0.2c0-0.2,0.1-0.4-0.1-0.5l0-0.2l0-0.1l0.5-0.3c0,0,0.1-0.1,0.1-0.1c0,0,0,0,0,0c0,0,0.1,0,0.1-0.1
				c0.1,0,0.1,0,0.2,0c0,0,0.1,0,0.1,0c0.1,0,0.2-0.1,0.2-0.1c0,0,0.1-0.1,0.2-0.1l0,0c0.1,0.1,0.1,0.1,0.2,0l0.2-0.2l0,0l0.1,0.1h0
				c0,0,0,0,0,0h0l0,0c0.1-0.1,0.3-0.2,0.5-0.2c0.1,0,0.2,0,0.3-0.1c0.1,0,0.2-0.1,0.3-0.1c0,0,0.1,0,0.1,0c0,0,0,0,0.1,0
				c0.1,0,0.2,0,0.2-0.1c0,0,0.1,0,0.1,0c0.1,0,0.1,0,0.2,0c0.2,0,0.5-0.1,0.7-0.2c0,0,0.1,0,0.1-0.1c0-0.1,0-0.1,0.1-0.2
				c0.1-0.3,0.2-0.6,0.6-0.6C66,4,66.2,4.1,66.3,4.1c0.1,0,0.2,0,0.2,0v0c0,0.1,0,0.1,0.1,0.2c0.1,0.2,0.3,0.3,0.5,0.4h0.1
				c0.1,0,0.2,0,0.3,0l0.2,0c0,0,0.1,0,0.1,0c0,0,0.1,0,0.1,0c0,0,0,0,0,0c0.1,0.1,0.2,0.1,0.3,0.1c0.1,0,0.1,0,0.2,0
				c0.1,0,0.1,0,0.2,0h0.1c0.1,0,0.1,0,0.2-0.1c0.1-0.1,0.2-0.1,0.3-0.1c0.1,0,0.1,0,0.2,0l0.1,0c0.1,0,0.1,0,0.2,0
				c0.2,0,0.3,0,0.5,0c0.1,0,0.5-0.1,0.9-0.1c0.7-0.1,1.6-0.3,1.8-0.3c0.1,0,0.2,0,0.3,0c0.1,0,0.1,0,0.2,0s0.1,0,0.2,0h0.1
				c0.1,0,0.2,0,0.4,0c0.1,0,0.1,0,0.2,0c0.1,0,0.2,0,0.2,0.1c0,0,0,0,0.1,0c0,0,0.1,0,0.1,0l0,0c0,0,0,0,0.1-0.1
				c0.3,0,0.6-0.1,1-0.1h0.1c0.2,0,0.3,0.1,0.4,0.2c0,0.1,0.1,0.1,0.2,0.1l0,0c0,0.5,0,0.9-0.2,1.4l-0.1,0c-0.1,0.1-0.1,0.1-0.2,0.2
				l0,0c0,0-0.1,0.1-0.1,0.1C75.4,5.9,75.1,6,74.7,6c-0.4,0.1-0.8,0.1-1.2,0.2l-0.6,0.1c-0.3,0-1.2,0.1-2,0.2
				c-0.6,0.1-1.2,0.1-1.4,0.1c-0.2,0-0.4,0-0.5,0.1c-0.1,0-0.3,0-0.4,0.1c-0.2,0-0.4,0-0.7,0c-0.1,0-0.3,0-0.4,0c-0.1,0-0.3,0-0.4,0
				l-0.1,0c0,0-0.1,0-0.1,0.1c-0.1,0.1-0.1,0.2-0.1,0.4c0,0.1,0,0.2-0.1,0.3c-0.1,0.1-0.1,0.3-0.1,0.4c0,0.1,0,0.2-0.1,0.4
				c0,0.1-0.1,0.3,0,0.4c0,0.1,0,0.1,0,0.2c-0.1,0.5-0.1,1,0,1.5v0c0.1,0.7,0.1,1.5-0.1,2.2c-0.1,0.3-0.1,0.6-0.1,0.9
				c0,0.3,0,0.6-0.1,0.9l0,0.1c-0.2,0.2-0.2,0.5-0.1,0.8c0,0.2,0,0.4-0.1,0.5c-0.1,0-0.2,0-0.3,0c-0.2,0-0.4,0.1-0.7,0.1
				C64.9,16,64.8,16,64.7,16z"/>
		</g>
	</g>
	<g id="Grupo_488" transform="translate(76.929 88.033)">
		<path id="Trazado_1399" d="M52.5,9.8l2.6,2.2c0.2-0.1,0.2-0.3,0.2-0.5c-0.2-1.4-0.1-2.8,0.4-4.2c0.1-0.2,0.1-0.5-0.2-0.7
			c0,0,0,0,0,0c-0.5-0.3-0.6-0.9-0.4-1.4c0.2-0.5,0.7-0.8,1.2-0.7c0.5,0,0.9,0.4,1,1c0.1,0.5-0.2,1-0.7,1.2
			c-0.3,0.1-0.4,0.4-0.5,0.6c-0.2,1.6-0.1,3.2,0.2,4.8c0.1,0.7,0.5,1.4,1.1,1.8c2,1.6,4,3.3,6,4.9c0.5,0.4,1,0.7,1.6,0.9
			c0.5,0.2,1.1,0.1,1.6-0.2c1.6-1.2,3.2-2.5,4.7-3.8c0.8-0.7,1.7-1.4,2.5-2.1c0.3-0.2,0.5-0.5,0.6-0.9c0.3-1.4,0.5-2.8,0.5-4.2
			c0-0.3-0.1-0.6-0.1-0.9c0-0.5-0.1-0.9-0.6-1.1c-0.5-0.2-0.7-0.8-0.5-1.3c0.2-0.6,0.8-1,1.4-0.8c0.3,0.1,0.6,0.3,0.7,0.6
			c0.2,0.5,0.1,1-0.3,1.3c-0.3,0.2-0.5,0.5-0.3,0.9c0,0,0,0,0,0c0.4,1.2,0.6,2.6,0.4,3.9c-0.1,0.2,0,0.4,0,0.6c0.1,0.1,0.2,0,0.3,0
			c0.8-0.6,1.5-1.3,2.3-1.9c0.2-0.2,0.1-0.3,0.1-0.5c-0.3-0.7-0.1-1.5,0.5-2c0.7-0.7,1.9-0.6,2.6,0.1c0.5,0.6,0.6,1.4,0.3,2.1
			c-0.4,0.8-1.3,1.2-2.2,0.9c-0.3-0.1-0.7,0-0.9,0.2c-2.3,2.4-4.7,4.6-7,7.1c-2.1,2.2-3.4,5.1-3.7,8.2c-0.2,2.9,0.1,5.8,0.9,8.6
			c0.1,0.6,0.6,1,1.2,0.9c0.1,0,0.2,0,0.3-0.1c0.5-0.2,1-0.3,1.6-0.5c0.1,0.1,0.2,0.3,0.2,0.5c0,1.1,0.1,2.2,0.1,3.3
			c0,0.3-0.1,0.7-0.4,0.9c-0.2,0.1-0.3,0.2-0.4,0.4c-1.4,1.2-2.2,3-2.1,4.9c0,1,0,2,0.1,3c0,0.2,0,0.5,0,0.8
			c-0.3-0.2-0.5-0.4-0.8-0.6c-0.9-0.9-1.8-1.7-2.7-2.5c-0.6-0.5-0.6-0.5-1.2,0c-1,0.9-2,1.8-2.9,2.7c-0.1,0.1-0.3,0.3-0.4,0.3
			c-0.1-0.2-0.1-0.4-0.1-0.5c0-1.7,0-3.3-0.1-5c0-0.8-0.4-1.5-1-2.1c-0.3-0.3-0.6-0.7-0.6-1.1c-0.2-1.5-0.5-3.1-0.8-4.6
			c0-0.1,0-0.2,0-0.3c0.5,0.1,0.9,0.3,1.3,0.4c0.5,0.3,1.1,0.1,1.4-0.4c0,0,0,0,0,0c0.3-0.5,0.6-1.1,0.7-1.7
			c0.4-2.3,0.6-4.7,0.4-7.1c0-3-1.5-5.4-3.1-7.7c-1.1-1.4-2.3-2.7-3.6-3.9c-1.3-1.3-2.6-2.6-3.9-3.9c-0.2-0.2-0.5-0.3-0.7-0.2
			c-0.8,0.3-1.7,0-2.2-0.7c-0.4-0.7-0.3-1.7,0.2-2.3c0.6-0.6,1.6-0.7,2.3-0.3c0.7,0.5,1.1,1.4,0.8,2.2C52.6,9.6,52.6,9.7,52.5,9.8z"
			/>
		<path id="Trazado_1400" d="M65.3,46.1c0.2,0,0.3,0.1,0.5,0.2c1.3,1,2.4,2.3,3.7,3.4c0.2,0.1,0.2,0.3,0.2,0.5c0,0.3,0,0.6,0,0.9
			c0,0.5,0.2,0.7,0.7,0.7c0.4,0,0.9,0,1.3,0c0.5,0,0.6,0,0.6,0.6c0,0.5,0,0.9,0,1.4c0,0.7,0.1,0.8,0.8,0.8c0.4,0,0.8,0,1.2,0
			c0.5,0,0.7,0.2,0.7,0.7c0,0.5,0,0.9,0,1.4c0,0.5,0.2,0.7,0.7,0.7c0.4,0,0.8,0,1.2,0c0.5,0,0.7,0.2,0.7,0.7c0,0.5,0,1,0,1.5
			c0,0.5,0.2,0.7,0.7,0.7c0.5,0,1,0,1.5,0c0.6,0,0.7,0.2,0.7,0.8c0.1,0.8-0.3,1.6-1.1,1.9c-8.7,4.3-18.9,4.3-27.7,0.1
			c-0.8-0.3-1.3-1.1-1.2-2c0-0.5,0.2-0.7,0.7-0.7c0.5,0,0.9,0,1.4,0c0.6,0,0.8-0.2,0.8-0.8c0-0.4,0-0.7,0-1.1c0-0.8,0.1-1,1-1
			c0.3,0,0.6,0,0.9,0c0.5,0,0.7-0.2,0.7-0.7c0-0.4,0-0.8,0-1.2c0-0.8,0.2-0.9,0.9-1c0.4,0,0.8,0,1.2,0c0.5,0,0.7-0.2,0.7-0.7
			c0-0.4,0-0.9,0-1.3c0-0.6,0.2-0.8,0.8-0.9c0.4,0,0.9,0,1.3,0c0.3,0,0.4-0.1,0.4-0.4c0-0.3,0-0.6,0-0.9c0-0.4,0.1-0.9,0.4-1.2
			C63,48.3,64.2,47.2,65.3,46.1z M64.8,57.2c0,0.2,0,0.4-0.3,0.4c-0.3,0-0.4-0.2-0.4-0.4c0-0.2,0-0.4,0-0.6
			c-0.1-0.9-0.1-1.9-0.2-2.8c0-0.3-0.2-0.6-0.5-0.6c-0.5-0.1-0.7,0.1-0.7,0.7c0,1.6,0,3.2,0.2,4.8c0,0.6,0.2,1.2,0.3,1.8
			c0.6,1.3,2.1,2,3.5,1.4c0.7-0.3,1-1.2,0.6-1.9c0,0,0,0,0,0c-0.5-0.6-1.4-0.9-2.2-0.7c-0.2,0.1-0.4,0.3-0.3,0.6c0,0,0,0,0,0
			c0.1,0.3,0.3,0.3,0.5,0.3c0.2,0,0.4-0.1,0.6-0.1c0.4,0,0.7,0.2,0.7,0.4c0,0.3-0.2,0.6-0.6,0.7c-0.5,0.1-1.1,0-1.6-0.4
			c-0.5-0.4-0.7-1-0.6-1.6c0.1-0.6,0.6-0.8,1.2-0.9c0.6-0.1,1.3,0,1.8,0.2c1,0.4,1.6,1.5,1.2,2.5c0,0.1-0.1,0.2-0.1,0.2
			c-0.7,1.4-2.4,2-3.8,1.3c-0.2-0.1-0.3-0.2-0.5-0.3C63,61.9,62.5,61,62.3,60c-0.2-0.7-0.2-1.3-0.3-2c0-0.1,0-0.2-0.1-0.4
			c-0.1-0.2-0.3-0.4-0.6-0.3c-0.3,0-0.4,0.2-0.4,0.5c0,1.1,0.2,2.3,0.6,3.3c0.5,2.1,2.6,3.4,4.7,2.9c0,0,0,0,0.1,0
			c1.3-0.2,2.4-1.1,2.7-2.4c0.3-1.1,0.4-2.3,0.5-3.4c0.1-0.8,0.1-1.6,0.1-2.5c0-0.5-0.1-0.6-0.5-0.7c-0.4-0.1-0.5,0.2-0.5,0.6
			c0,0.2,0,0.4-0.1,0.6c-0.1,0.6-0.1,1.2-0.2,1.7c0,0.2-0.1,0.3-0.3,0.3c-0.2,0-0.3-0.1-0.3-0.3c0,0,0,0,0,0c0-0.1,0-0.3,0-0.4
			c0.1-0.7,0.1-1.4,0.2-2c0-0.5,0.1-1,0.1-1.5c0-0.3-0.2-0.5-0.5-0.5c0,0,0,0,0,0c-0.3,0-0.6,0.2-0.6,0.6c0,0.4-0.1,0.8-0.1,1.2
			c0,0.6,0,1.3,0,1.9c0,0.2,0,0.4-0.3,0.4s-0.4-0.2-0.4-0.4c0-0.1,0-0.3,0-0.4c0-1,0-2,0-3c0-0.2,0-0.4-0.1-0.6
			c-0.1-0.3-0.3-0.4-0.6-0.4c-0.3,0-0.5,0.1-0.6,0.4c0,0.1,0,0.3,0,0.4C64.7,54.2,64.8,56.6,64.8,57.2L64.8,57.2z"/>
		<path id="Trazado_1401" d="M92.4,26.3c-0.9-0.5-1.8-0.8-2.8-1c-0.3,0-0.6-0.1-0.9-0.2c-0.6-0.2-1.2,0-1.6,0.5c-1,1-1.9,2-2.7,3.1
			c-1.1,1.4-2.2,2.9-3.3,4.3c-0.7,0.9-0.7,2.1,0,3c0.5,0.8,1.1,1.5,1.7,2.2c0.4,0.6,1,1.1,1.7,1.4c1,0.5,2,1,3.1,1.5
			c1.2,0.4,2.5,0.8,3.8,1c0.7,0,1.4-0.1,2-0.4c0.2-0.1,0.1-0.3,0.2-0.4c0.1-0.8,0.8-1.4,1.6-1.3c0,0,0.1,0,0.1,0
			c0.8,0.2,1.3,0.9,1.2,1.7c0,0,0,0.1,0,0.1c-0.2,0.8-1,1.2-1.7,1c-0.2,0-0.3-0.1-0.5-0.2c-0.3-0.3-0.7-0.3-1-0.1
			c-0.2,0.1-0.4,0.2-0.7,0.3c-0.3,0.1-0.3,0.3-0.1,0.5c0.1,0.2,0.3,0.3,0.4,0.5c0.1,0.3,0.4,0.4,0.7,0.4c0.9,0,1.7,0.7,1.7,1.6
			c0.1,1-0.7,1.8-1.6,1.9c-1,0.1-1.8-0.7-1.9-1.6c0-0.5,0.1-1,0.4-1.3c0.1-0.1,0.2-0.2,0.4-0.3c-0.4-0.7-1-1.3-1.8-1.5
			c-0.6-0.1-1.3-0.3-2-0.3c-1-0.1-2.1-0.4-3.1-0.8c-0.2-0.1-0.4-0.2-0.6,0c0.1,0.5,0.4,0.9,0.7,1.3c0.8,0.9,1.6,1.7,2.3,2.5
			c0.2,0.2,0.4,0.3,0.7,0.2c0.6-0.1,1.2,0.4,1.3,1c0,0,0,0,0,0c0,0.6-0.4,1.2-1,1.3c-0.6,0.1-1.2-0.4-1.3-1c0-0.3,0.1-0.6,0.2-0.9
			c-0.1-0.2-0.2-0.3-0.3-0.5c-2.5-2.5-5.1-5.1-7.6-7.6c-0.6-0.6-1.4-1-2.3-1c-0.1,0-0.2,0-0.3-0.1c-0.1-0.5,0-1,0.1-1.4
			c0.1-0.8,0.2-1.7,0.3-2.5c0-0.2,0.1-0.4,0.3-0.5c1.2-0.9,2.4-2,3.4-3.1c1.7-1.7,3.3-3.4,5-5c0.7-0.6,1.1-1.5,1.2-2.4
			c0.1-1.1,0.4-2.2,1-3.1c0.1-0.1,0.2-0.3,0.2-0.5c-0.1-0.2-0.2-0.2-0.4-0.4c-0.7-0.7-0.8-1.9-0.1-2.6c0.5-0.5,1.2-0.7,1.8-0.5
			c0.8,0.2,1.4,1,1.4,1.8c0,0.8-0.6,1.5-1.4,1.7c-0.3,0-0.6,0.3-0.7,0.6c-0.6,1.3-0.9,2.8-0.9,4.3c-0.1,0.3,0.2,0.6,0.5,0.7
			c0.5,0.1,0.9,0.2,1.4,0.3c0.9,0.3,1.8,0.7,2.6,1.2c0.4-0.5,0.9-0.8,1.6-0.8c1,0,1.8,0.9,1.8,1.9c0,1-0.9,1.8-1.9,1.8
			c-0.1,0-0.2,0-0.3,0C92.9,28.3,92.4,27.6,92.4,26.3z"/>
		<path id="Trazado_1402" d="M38.7,26.4c0.2,1-0.4,2-1.4,2.2c-1,0.2-1.9-0.4-2.2-1.3c-0.2-0.7,0-1.5,0.6-1.9
			c0.5-0.5,1.3-0.5,1.9-0.2c0.1,0,0.2,0.1,0.2,0.1c0.4,0.4,0.7,0.3,1.2,0.1c1-0.5,2.1-0.9,3.2-1.1c0.5-0.1,0.6-0.3,0.6-0.8
			c0-1.4-0.3-2.9-0.9-4.2c-0.1-0.3-0.3-0.5-0.6-0.5c-0.8-0.1-1.5-0.8-1.5-1.7c0-1,0.7-1.9,1.7-1.9c1,0,1.9,0.7,1.9,1.7
			c0,0.6-0.2,1.1-0.6,1.5c-0.1,0.1-0.2,0.2-0.3,0.3c0.1,0.4,0.3,0.7,0.5,1c0.4,0.8,0.7,1.8,0.7,2.7c0,0.8,0.4,1.5,0.9,2.1
			c1.5,1.5,3,3,4.5,4.5c1.3,1.3,2.6,2.6,3.8,3.8c0.2,0.2,0.3,0.5,0.3,0.8c-0.2,1.2-0.4,2.4-0.8,3.6c0,0.1-0.1,0.1-0.1,0.2
			c-1.3,1.1-2.5,2.2-3.6,3.5c-1.7,1.6-3.3,3.3-5,4.9c-0.2,0.2-0.4,0.4-0.5,0.6c0,0.1,0.1,0.2,0.1,0.3c0.2,0.5,0,1.1-0.4,1.4
			c-0.4,0.3-1,0.3-1.4,0c-0.4-0.3-0.6-0.9-0.4-1.3c0.2-0.5,0.7-0.8,1.2-0.7c0.2,0,0.5,0,0.6-0.2c0.8-0.8,1.5-1.6,2.3-2.4
			c0.3-0.4,0.6-0.8,0.8-1.3c-0.1-0.2-0.3-0.2-0.5-0.1c0,0,0,0,0,0c-1.6,0.6-3.2,1-4.9,1.1c-0.8,0.1-1.6,0.6-2,1.3
			c0.1,0.2,0.3,0.3,0.4,0.5c0.5,0.6,0.5,1.5,0,2.1c-0.5,0.6-1.3,0.8-2,0.5c-0.7-0.3-1.1-1-1-1.8c0.1-0.8,0.7-1.4,1.5-1.4
			c0.7,0,0.8-0.5,1.1-0.9c0.1-0.2,0-0.3-0.2-0.3l-1.3-0.5c-0.4,0.4-0.9,0.6-1.4,0.6c-0.8-0.1-1.4-0.8-1.3-1.6
			c0.1-0.6,0.5-1.1,1.1-1.2c0.6-0.2,1.3,0.1,1.6,0.7c0.1,0.1,0.1,0.2,0.1,0.3c0,0.6,0.4,0.7,0.8,0.9c0.7,0.3,1.5,0.3,2.3,0
			c0.8-0.2,1.6-0.4,2.4-0.6c0.5-0.2,1.1-0.4,1.6-0.6c0.8-0.4,1.6-0.8,2.4-1.2c0.4-0.2,0.8-0.5,1.1-0.9c0.6-0.8,1.2-1.6,1.8-2.4
			c0.4-0.5,0.6-1.1,0.6-1.8c0-0.5-0.1-0.9-0.4-1.3c-2-2.5-3.8-5.1-6-7.5c-0.5-0.6-1.3-0.8-2-0.6c-1.1,0.2-2.2,0.5-3.2,1
			C38.9,26.2,38.8,26.3,38.7,26.4z"/>
		<path id="Trazado_1403" class="st0" d="M48.4,26.2c1.6-0.8,3.4-1.3,5.2-1.2c0.1-0.3-0.1-0.5-0.4-0.6c-0.1,0-0.1,0-0.2,0
			c-1.7,0-3.5,0.1-4.9,1.2c-0.1,0.1-0.1,0.1-0.2,0c0.1-0.7,0.4-1.4,0.8-1.9c0.8-0.9,1.9-1.4,3.1-1.4c0.8,0,1.5,0,2.3,0.1
			c0.6,0,1.3-0.1,1.9-0.3c1.4-0.3,2.8,0.6,3.1,2c0,0.2,0.1,0.4,0.1,0.6c0,0.8-0.3,1.6-0.9,2.1c-0.1,0.1-0.1,0.1-0.1,0.2
			c0.2,0.4,0.6,0.6,1,0.6c0.6,0,1.2,0,1.8,0c0.2,0,0.3,0,0.5,0.1c0.2,0.1,0.3,0.3,0.3,0.5c0,0.2-0.2,0.2-0.4,0.2c-0.6,0-1.2,0-1.7,0
			c-0.2,0-0.4,0-0.7,0.1c-0.2,0.1-0.4,0.1-0.3,0.3c0,0.2,0.2,0.3,0.4,0.3c0.5,0,1,0,1.6,0c0.4,0,0.8-0.1,1.3-0.1
			c0.2,0,0.3,0.1,0.4,0.2c0.2,0.4,0.1,0.9-0.3,1.1c-0.1,0.1-0.2,0.1-0.4,0.1c-0.7,0.1-1.5,0.1-2.2,0.1c-0.2,0-0.5,0-0.5,0.3
			c0,0.3,0.2,0.4,0.5,0.4c0.7,0,1.3,0,2,0c0.2,0,0.5,0,0.7,0.1c0,0.3-0.2,0.4-0.4,0.5c-0.5,0.2-0.9,0.3-1.4,0.2c-0.4,0-0.8,0-1.1,0
			c-0.3,0-0.6,0.2-0.6,0.5c0,0,0,0.1,0,0.1c0.4,2.6,0.6,5.2,1,7.8c0,0.2,0.1,0.3,0.1,0.4c0.2,0.4,0.1,0.5-0.4,0.5
			c-1.3-0.2-1.3-0.2-1.4-1.5c-0.2-2.2-0.4-4.4-0.6-6.6c0-0.2,0-0.5-0.2-0.5c-0.3,0-0.2,0.3-0.2,0.5c0,1.6,0.1,3.2,0.3,4.8
			c0.1,0.9,0.1,1.9,0.2,2.8c0.1,1.1,0.1,2.2,0.2,3.3c0.1,0.3-0.1,0.6-0.4,0.7c0,0-0.1,0-0.1,0c-0.2,0-0.4,0.1-0.6,0.1
			c-1,0-1.3-0.3-1.2-1.3c0.2-3.3,0.4-6.6,0.5-9.9c0-0.2,0-0.4,0-0.7c0-0.1-0.1-0.3-0.2-0.3c-0.2,0-0.2,0.2-0.2,0.3
			c-0.1,0.5-0.1,1-0.2,1.5c-0.1,1.3-0.2,2.5-0.3,3.8c0,0.2,0,0.4-0.2,0.5c-0.5,0-0.9-0.2-1.3-0.5c-0.2-0.2-0.3-0.4-0.2-0.6
			c0.3-1.6,0.6-3.2,0.9-4.7c0.1-0.7,0.1-0.7-0.5-1c-0.8-0.3-1.5-0.8-2-1.3c-0.2-0.1-0.3-0.3-0.3-0.5c0.8,0.1,1.4,0.7,2.1,0.7
			c0-0.3-0.2-0.4-0.4-0.4c-0.8-0.3-1.6-0.7-2.4-1c-0.5-0.2-0.6-0.5-0.6-0.9c0.1-0.4,0.1-0.5,0.5-0.3c0.8,0.3,1.6,0.6,2.4,0.8
			c0.5,0.2,0.5,0.2,0.8,0c0-0.3-0.2-0.3-0.4-0.4c-0.9-0.3-1.7-0.6-2.6-0.9c-0.2-0.1-0.5-0.2-0.5-0.5c0.1-0.3,0.4-0.5,0.8-0.4
			c0.6,0.1,1.3,0.4,1.9,0.6c0.4,0.1,0.8,0.2,1.2,0.2c0.3,0,0.6-0.2,0.7-0.5c0.1-0.4-0.2-0.5-0.5-0.7c-0.4-0.2-0.8-0.3-1.2-0.3
			c-1.4-0.1-2.7-0.1-4.1,0.2C48.9,26.3,48.7,26.5,48.4,26.2z M56.2,22.6c-1-0.1-1.9,0.7-2,1.7c0,0.1,0,0.1,0,0.2c0,1.1,0.9,2,1.9,2
			c0.1,0,0.1,0,0.2,0c1.1,0,1.9-0.8,2-1.9c0,0,0-0.1,0-0.1c0-1-0.8-1.9-1.9-1.9C56.3,22.6,56.2,22.6,56.2,22.6L56.2,22.6z M56,32.1
			c1.1,0,2-0.8,2-1.9c0-0.1,0-0.1,0-0.2c0.1-1-0.7-1.8-1.6-1.9c-0.1,0-0.2,0-0.2,0c-1.1,0-2,0.9-2.1,1.9C54,31.2,54.9,32.1,56,32.1
			L56,32.1z"/>
		<path id="Trazado_1404" class="st0" d="M79.4,25.9c-0.3-0.2-0.3-0.6-0.4-0.9c-0.2-0.5-0.7-0.8-1.2-0.8c-0.1,0-0.2,0-0.3,0.1
			c-0.3,0.1-0.3,0.3,0,0.5c0.2,0.1,0.3,0.2,0.5,0.2c0.3,0.1,0.5,0.3,0.6,0.6c-0.4,0.2-0.8,0.3-1.2,0.4c-0.3,0.1-0.5,0.2-0.8,0.3
			c-0.3,0.2-0.4,0.5-0.4,0.8c0.1,0.3,0.4,0.4,0.7,0.3c0.8-0.1,1.5-0.3,2.3-0.4c0.2,0,0.3,0,0.5,0c0.2,0,0.4,0.2,0.5,0.4
			c0.1,0.3-0.1,0.4-0.3,0.5c-0.7,0.2-1.4,0.4-2.1,0.7c-0.2,0.1-0.4,0.1-0.4,0.3c0.1,0.2,0.2,0.2,0.4,0.2c0.6-0.1,1.2-0.3,1.8-0.5
			c0.3-0.1,0.5-0.2,0.8,0c0.2,0.4,0.3,0.8,0.1,1.3c-0.1,0.1-0.3,0.2-0.5,0.2c-0.5,0.1-1.1,0.2-1.6,0.3c0,0-0.1,0-0.1,0
			c-0.2,0.1-0.5,0.1-0.5,0.4c0.1,0.3,0.3,0.2,0.6,0.2c0.3-0.1,0.5-0.1,0.8-0.2c0.1,0,0.3-0.1,0.4,0c-0.1,0.2-0.2,0.4-0.3,0.5
			c-0.5,0.4-1.1,0.8-1.7,0.9c-0.3,0-0.4,0.3-0.4,0.5c-0.1,1.8-0.2,3.6-0.4,5.4c-0.1,0.7-0.1,1.4-0.2,2.1c0,0.2-0.1,0.5-0.3,0.6
			c-0.2-0.1-0.2-0.3-0.2-0.5c0-1.9,0.1-3.7,0.2-5.6c0-0.5,0-0.9-0.1-1.4c0-0.2,0-0.5-0.3-0.5c-0.3,0-0.2,0.3-0.2,0.5
			c0,1.2-0.1,2.4-0.1,3.6c-0.1,3-0.1,5.9-0.2,8.9c0,0.1,0,0.3,0,0.4c0,0.2-0.1,0.3-0.3,0.3s-0.3-0.2-0.3-0.4c0-0.5-0.1-0.9-0.1-1.4
			c-0.1-3.6-0.2-7.3-0.1-10.9c0-0.2,0-0.4,0-0.7c0-0.1-0.1-0.3-0.2-0.3c-0.1,0-0.3,0.1-0.3,0.2c0,0,0,0,0,0
			c-0.1,0.3-0.1,0.6-0.1,0.9c-0.1,2.1-0.1,4.2,0,6.2c0.1,0.3,0,0.6-0.1,0.9c-0.2-0.3-0.4-0.7-0.4-1.1C73.1,39,73,37.8,73,36.7
			c-0.1-1.3-0.1-2.5-0.2-3.8c0-0.6-0.3-0.8-0.9-0.7c-0.3,0-0.6,0.1-0.9,0.1c-0.7,0.1-1.4-0.2-1.7-0.8c0.1-0.2,0.3-0.2,0.5-0.2
			c0.6,0,1.2,0,1.8,0c0.1,0,0.3,0,0.4,0c0.2,0,0.4-0.1,0.4-0.4c0-0.2-0.2-0.2-0.4-0.3c-0.8,0-1.6-0.1-2.4-0.1
			c-0.4,0-0.8-0.4-0.8-0.8c0-0.1,0-0.2,0.1-0.3c0.1-0.2,0.3-0.2,0.4-0.2c0.8,0,1.5,0,2.3,0c0.2,0,0.4,0,0.6-0.1
			c0.1,0,0.2-0.2,0.2-0.3c0-0.2-0.2-0.2-0.3-0.2c-0.2,0-0.3,0-0.5,0c-0.6,0-1.3,0-1.9,0c-0.2,0-0.4,0-0.4-0.2c0-0.2,0.1-0.4,0.3-0.5
			c0.2-0.1,0.3-0.1,0.5-0.1c0.6,0,1.3,0,1.9-0.1c0.2,0,0.3-0.1,0.5-0.1c0.5-0.2,0.5-0.5,0.2-0.9c-0.5-0.5-0.7-1.1-0.8-1.8
			c-0.2-1.3,0.7-2.5,1.9-2.8c0.6-0.1,1.2-0.2,1.8-0.1c0.8,0,1.6,0.1,2.3,0.4c1.4,0.4,2.3,1.9,1.9,3.4c0,0,0,0,0,0
			C79.6,25.8,79.5,25.9,79.4,25.9z M76.7,24.5c0-1.1-0.8-2-1.9-2c0,0-0.1,0-0.1,0c-1.1,0-2,0.9-2,2c-0.1,1.1,0.8,1.9,1.8,2
			c0,0,0.1,0,0.1,0c1.1,0.1,2-0.7,2.1-1.8C76.6,24.6,76.7,24.6,76.7,24.5z M77,30.2c0.1-1-1.2-2-2.1-2c-1,0-1.8,0.8-1.8,1.8
			c0,0,0,0.1,0,0.1c0,1.1,0.8,2,1.9,2C76.1,32.1,76.9,31.3,77,30.2L77,30.2z"/>
		<path id="Trazado_1405" d="M78.9,56.8c-0.4-0.9,0-2,1-2.4c0.1-0.1,0.3-0.1,0.5-0.1c0.9-0.2,1.8,0.1,2.4,0.8c0.4,0.4,0.7,0.7,1,1.1
			c0.4,0.5,1,0.6,1.6,0.4c0.6-0.3,1.1-0.8,1.2-1.5c0-0.3-0.2-0.7-0.5-0.8c-0.3-0.1-0.6,0-0.8,0.2c-0.1,0.1-0.2,0.2-0.3,0.2
			c-0.3-0.6-0.1-1.3,0.3-1.7c0.5-0.5,1.2-0.6,1.8-0.3c0.3,0.1,0.5,0.3,0.8,0.5c0.4,0.4,1.1,0.4,1.5,0c0.3-0.2,0.5-0.4,0.8-0.6
			c0.3-0.3,0.3-0.7,0-1c0,0,0,0,0,0c-0.3-0.3-0.6-0.2-1,0.1c-0.1,0.1-0.2,0.2-0.3,0.3c-0.2-0.4-0.1-0.9,0.2-1.1
			c0.3-0.2,0.6-0.3,1-0.3c0.8,0.2,1.6,0.3,2.4,0.3c0,0,0.1,0,0.1,0.1c0.1,0.2,0,0.3-0.1,0.5c-1.2,1.8-2.6,3.5-4.1,5.2
			c-1.9,2-4.1,3.7-6.5,5.2c-0.6,0.3-0.8,0.2-0.9-0.5c0-0.2,0-0.5,0-0.7c0-0.3-0.2-0.5-0.5-0.5c0,0,0,0-0.1,0c-0.3,0-0.6,0-0.9-0.1
			c-0.1-0.3,0.2-0.3,0.3-0.4c0.4-0.2,0.8-0.4,1.2-0.7c0.4-0.3,0.8-0.7,0.9-1.1c0.3-0.8-0.1-1.6-0.8-1.9c0,0,0,0-0.1,0
			c-0.6-0.4-1.5-0.2-1.8,0.5c0,0.1-0.1,0.1-0.1,0.2C79,56.6,79,56.8,78.9,56.8z"/>
		<path id="Trazado_1406" d="M38.7,51c0.1,0,0.1-0.1,0.2-0.1c0.8,0.1,1.5,0,2.2-0.2c0.6-0.2,1.2,0.2,1.4,0.8c0.1,0.2,0,0.4,0,0.6
			c-0.2,0-0.3-0.2-0.4-0.3c-0.3-0.3-0.7-0.4-1-0.1c-0.3,0.2-0.3,0.7-0.1,1c0,0,0,0,0,0c0.3,0.4,0.8,0.7,1.3,0.9
			c0.3,0.1,0.6,0,0.8-0.2c0.3-0.2,0.5-0.4,0.8-0.6c0.6-0.4,1.3-0.3,1.8,0.2c0.5,0.4,0.7,1.2,0.4,1.8c-0.2,0-0.2-0.2-0.3-0.3
			c-0.2-0.2-0.5-0.3-0.7-0.2c-0.3,0.1-0.5,0.4-0.5,0.7c0,0.7,0.4,1.3,1,1.6c0.5,0.3,1.1,0.2,1.5-0.2c0.4-0.4,0.8-0.8,1.1-1.2
			c0.6-0.7,1.5-1,2.4-0.9c1,0.1,1.7,1,1.6,2c0,0.2-0.1,0.3-0.1,0.5c-0.2-0.1-0.2-0.3-0.3-0.4c-0.3-0.7-1-1-1.7-0.7
			c-0.1,0-0.1,0-0.2,0.1c-0.8,0.3-1.2,1.1-0.9,1.9c0.2,0.5,0.6,1,1.1,1.3c0.3,0.2,0.7,0.4,1.1,0.6c0.1,0.1,0.2,0.1,0.3,0.3
			c-0.1,0.2-0.4,0.1-0.6,0.1c-0.8,0-0.8,0-0.8,0.8c0,0.2,0,0.4-0.1,0.6c-0.1,0.5-0.3,0.7-0.8,0.4c-0.8-0.5-1.6-1-2.4-1.6
			c-3.3-2.4-6.1-5.4-8.3-8.9C38.7,51.3,38.6,51.1,38.7,51z"/>
		<path id="Trazado_1407" class="st1" d="M47.3,32.4c0.6,1.4-0.1,2.1-1.2,2.7c0.2,0.1,0.4,0.2,0.6,0.4c0.2,0.2,0.3,0.4,0.3,0.7
			c-0.1,0.3-0.3,0.3-0.6,0.3c0,0-0.1,0-0.1,0c-0.8,0-1,0.1-1.3,0.9c-0.1,0.6-0.7,1-1.3,0.8c-0.1,0-0.3-0.1-0.4-0.2
			c-0.7-0.4-0.9-0.4-1.4,0.2c-0.2,0.2-0.5,0.5-0.8,0.3s-0.3-0.5-0.2-0.9c0-0.1,0.1-0.3,0.1-0.5c-0.2-0.1-0.4,0-0.6,0
			c-0.7,0.2-1.5-0.2-1.9-0.8c-0.1-0.2-0.2-0.4-0.1-0.6c0.6,0,0.7-0.4,0.9-0.9c0.2-0.6,0.7-1,1.2-1.3c0.6-0.3,1.3-0.3,1.9,0.1
			c0.1,0.1,0.3,0.2,0.4,0.2c0.1-0.1,0.1-0.2,0.2-0.4c0.2-1.1,1.2-1.8,2.3-1.6c0,0,0,0,0,0c0.3,0,0.6,0.1,0.9,0.3
			C46.6,32.7,46.7,32.7,47.3,32.4z M43,34.7c-0.1,0.1-0.1,0.1-0.1,0.1c-0.2,0.6-0.3,1.1-0.3,1.7c0,0.3,0.2,0.5,0.5,0.5
			c0.5,0.1,1-0.1,1.4-0.5c0.2-0.2,0.2-0.4,0.1-0.6c0,0,0,0-0.1-0.1C44.1,35.4,43.6,35,43,34.7L43,34.7z"/>
		<path id="Trazado_1408" d="M82.6,62.1c0.2-0.2,0.3,0,0.4,0.1c0.7,0.5,1.4,1,2.1,1.6c0.3,0.3,0.7,0.4,1.1,0.3
			c2.3-0.2,4.6-0.4,7-0.6c0.9-0.1,1.3-0.4,1.4-1.4c0.2-1.9,0.3-3.7,0.4-5.6c0-0.5,0.1-0.9,0.1-1.4c0-0.5-0.1-1-0.5-1.3
			c-0.5-0.6-1-1.2-1.5-1.7c-0.1-0.1-0.3-0.2-0.2-0.5c0.2-0.1,0.3,0,0.4,0.1c0.6,0.6,1.3,1.3,1.9,1.9c0.3,0.3,0.5,0.7,0.4,1.1
			c0,1-0.1,2.1-0.1,3.1c-0.1,1.6-0.2,3.2-0.3,4.8c-0.1,1.1-0.5,1.6-1.6,1.6c-2.5,0.1-4.9,0.3-7.4,0.4c-0.7,0.1-1.4-0.2-1.9-0.7
			c-0.5-0.6-1.1-1.1-1.7-1.7C82.7,62.4,82.6,62.3,82.6,62.1z"/>
		<path id="Trazado_1409" d="M48.6,62.1c0.1,0.2-0.1,0.3-0.2,0.4c-0.6,0.6-1.2,1.2-1.8,1.8c-0.4,0.4-1,0.6-1.5,0.6
			c-2.6-0.2-5.2-0.3-7.7-0.4c-0.8,0.1-1.4-0.5-1.5-1.3c0-0.1,0-0.2,0-0.2c-0.2-2.6-0.2-5.2-0.4-7.8c-0.1-0.5,0.1-1,0.5-1.3
			c0.6-0.7,1.3-1.3,1.9-1.9c0.1-0.1,0.2-0.2,0.4-0.1c0.1,0.2,0,0.4-0.2,0.5c-0.5,0.6-1,1.2-1.5,1.8c-0.3,0.4-0.5,0.9-0.4,1.4
			c0.2,2.3,0.3,4.6,0.5,6.9c0,0.7,0.5,1.3,1.2,1.3c0,0,0,0,0,0c2.3,0.2,4.7,0.4,7,0.6c0.4,0,0.9-0.1,1.2-0.4c0.7-0.5,1.3-1,2-1.5
			C48.3,62.2,48.4,62,48.6,62.1z"/>
		<path id="Trazado_1410" d="M48,6.6c-0.2,0-0.3-0.1-0.4-0.2c-0.5-0.4-1-0.8-1.6-1.1C45.8,5.1,45.5,5,45.2,5l-6.4,0.5
			c-0.5,0-1.1,0.1-1.6,0.1c-0.6,0-0.8,0.2-0.9,0.9c-0.1,2.6-0.2,5.1-0.3,7.7c0,0.4,0.1,0.8,0.4,1.2c0.9,1,1.8,2,2.6,3
			c0.1,0.1,0.3,0.2,0.1,0.4c-0.2,0-0.3-0.1-0.4-0.2c-1-1-1.9-1.9-2.9-2.9c-0.4-0.3-0.6-0.8-0.5-1.3c0.2-2.2,0.2-4.4,0.3-6.6
			c0-0.6,0.1-1.2,0.1-1.7c0-0.8,0.2-1,1-1c2-0.1,4.1-0.2,6.1-0.4c0.8,0,1.6-0.1,2.5-0.1c0.3,0,0.7,0.1,0.9,0.3c0.5,0.5,1,1,1.6,1.6
			C48,6.4,48,6.5,48,6.6z"/>
		<path id="Trazado_1411" d="M91.9,18.7c0.2-0.3,0.4-0.7,0.7-0.9c0.7-0.8,1.4-1.6,2.2-2.4c0.3-0.3,0.4-0.7,0.4-1.1
			c-0.1-2.1-0.2-4.1-0.3-6.2c0-0.5,0-1,0-1.5c0-0.6-0.2-0.8-0.9-0.9c-2.6-0.2-5.3-0.4-7.9-0.6c-0.3,0-0.6,0.1-0.9,0.3
			c-0.5,0.4-1.1,0.8-1.6,1.2c-0.1,0.1-0.2,0.2-0.4,0.2c-0.1-0.1,0-0.2,0.1-0.3c0.5-0.5,1-1,1.5-1.5c0.2-0.2,0.6-0.3,0.9-0.3
			c1.6,0.1,3.3,0.2,4.9,0.3c1.2,0.1,2.4,0.1,3.6,0.2c0.8,0.1,1,0.2,1,1c0.2,2.8,0.3,5.7,0.5,8.5c0,0.4-0.1,0.8-0.4,1.1
			c-1,1-2,2-2.9,2.9C92.3,18.6,92.2,18.8,91.9,18.7z"/>
		<path id="Trazado_1412" class="st1" d="M63.1,12.3c0.3,0.2,0.5,0.4,0.7,0.6c0.5,0.5,1.4,0.6,2,0.1c0.6-0.5,0.8-1.4,0.5-2.1
			c-0.3-0.5-0.9-0.8-1.5-0.8c-0.3,0-0.6,0-1,0c0.4-0.6,1.1-1,1.8-1c1-0.1,2,0.4,2.5,1.3c0.6,1.3,0.2,2.8-0.9,3.7
			c-1.1,0.8-2.7,0.6-3.6-0.4C63.1,13.3,63,12.8,63.1,12.3z"/>
		<path id="Trazado_1413" class="st1" d="M79.8,19.2c-0.3,0.1-0.5,0.5-0.5,0.8c0.1,0.4,0.4,0.7,0.8,0.8c0.6,0.1,1.1-0.1,1.5-0.4
			c0.5-0.7,0.4-1.6-0.2-2.2c-0.1,0-0.1-0.1-0.2-0.1c-0.3-0.1-0.5-0.2-0.8-0.2c-0.3,0-0.5,0.1-0.8,0.1c-0.7-0.1-1.4,0.4-1.5,1.2
			c0,0.1,0,0.1,0,0.2c0,0.2-0.1,0.3-0.2,0.4c-0.1-0.2,0-0.5,0-0.7c0.3-1.4,0.5-1.6,1.9-1.9c0.6-0.1,1.2,0,1.8,0.2
			c0.3,0.1,0.6,0.3,0.8,0.7c0.3,0.6,0.5,1.2,0.5,1.8c0.1,0.5-0.1,1-0.5,1.3c-0.2,0.1-0.4,0.3-0.5,0.4c-1.2,0.7-2.7,0.4-3.5-0.7
			c-0.1-0.2-0.1-0.5,0-0.8c0.2-0.2,0.3-0.5,0.3-0.8c0.1-0.3,0.3-0.5,0.6-0.5c0.4-0.1,0.7-0.1,1.1-0.2c0.4-0.1,0.8,0.2,0.9,0.6
			c0,0,0,0,0,0c0.1,0.4-0.2,0.8-0.6,0.9c-0.1,0-0.2,0-0.3,0c-0.5,0.1-0.6,0-0.6-0.5C79.9,19.5,80,19.4,79.8,19.2z"/>
		<path id="Trazado_1414" class="st1" d="M54.4,18.9c-0.5,0.6-1.2,0.9-2,1.1c-0.2,0-0.3,0-0.5,0.1c-0.6,0.1-0.8,0-1-0.6
			c-0.1-0.6-0.7-1-1.3-0.9c-0.2,0-0.4,0.1-0.6,0.3c-0.2,0.2-0.3,0.4-0.3,0.6c0,0.1,0.1,0.2,0.2,0.2c0.1,0,0.2,0,0.2-0.1c0,0,0,0,0,0
			c0,0,0,0,0,0c0.3-0.5,0.6-0.7,1-0.5c0.4,0.3,0.6,0.8,0.4,1.2c-0.2,0.6-0.9,0.9-1.5,0.7c-0.1,0-0.2-0.1-0.3-0.2
			C48,20,47.9,19,48.5,18.3c0.5-0.7,1.5-0.8,2.2-0.3c0,0,0.1,0.1,0.1,0.1c0.9,0.8,2.1,1.1,3.2,0.8C54.1,18.9,54.2,18.9,54.4,18.9z"
			/>
		<path id="Trazado_1415" class="st1" d="M91.1,34.1c0-0.5-0.2-1-0.6-1.3c-0.2,0-0.2,0.2-0.3,0.3c-0.2,0.3-0.5,0.3-0.8,0.2
			c0,0,0,0,0,0c-0.3-0.2-0.2-0.4-0.1-0.7c0.1-0.3,0.3-0.6,0.5-0.9c0.2-0.4,0.7-0.5,1.1-0.3c0,0,0.1,0,0.1,0c1,0.7,1.6,1.9,1.5,3.1
			c0,0.5-0.4,0.9-0.9,0.9c-0.1,0-0.1,0-0.2,0c-0.3-0.1-0.6-0.2-0.9-0.2c-0.3,0-0.5-0.3-0.4-0.5c0,0,0-0.1,0-0.1
			c0.1-0.3,0.3-0.4,0.6-0.4C90.8,34.1,90.9,34.1,91.1,34.1z"/>
		<path id="Trazado_1416" class="st1" d="M87.1,34.1c-0.6,0.1-1.3-0.1-1.8-0.5c-0.3-0.2-0.4-0.7-0.2-1c0.4-0.7,0.9-1.2,1.6-1.5
			c0.4-0.2,0.9-0.3,1.4-0.3c0.5,0,0.9,0.4,0.9,0.9c0,0,0,0.1,0,0.1c0,0.3-0.1,0.6-0.2,0.9c0,0.3-0.2,0.5-0.5,0.4c0,0-0.1,0-0.1,0
			c-0.3,0-0.4-0.3-0.4-0.6c0-0.1,0-0.3-0.1-0.4c-0.5,0-1,0.3-1.3,0.7C87.1,33.2,87.4,33.5,87.1,34.1L87.1,34.1z"/>
		<path id="Trazado_1417" class="st1" d="M89.2,37.4c0.5,0,1-0.3,1.3-0.7c-0.1-0.2-0.2-0.2-0.4-0.3c-0.2-0.1-0.3-0.4-0.2-0.6
			c0,0,0,0,0,0c0.1-0.2,0.3-0.4,0.5-0.3c0,0,0.1,0,0.1,0c0.4,0.1,0.7,0.3,1.1,0.4c0.4,0.2,0.5,0.7,0.3,1.1c0,0,0,0,0,0.1
			c-0.6,1.1-1.8,1.7-3.1,1.8c-0.5,0-0.9-0.4-0.9-0.9c0-0.1,0-0.1,0-0.2c0-0.2,0.1-0.5,0.2-0.7c0-0.3,0.2-0.5,0.5-0.5
			c0,0,0.1,0,0.1,0c0.3,0,0.5,0.2,0.5,0.6C89.2,37.2,89.2,37.3,89.2,37.4z"/>
		<path id="Trazado_1418" class="st1" d="M85.8,35.6c0.1,0.5,0.3,0.9,0.6,1.2c0.2-0.1,0.2-0.3,0.4-0.4c0.2-0.2,0.3-0.3,0.6-0.2
			c0.2,0.1,0.4,0.4,0.4,0.6c-0.1,0.5-0.3,0.9-0.6,1.2c-0.3,0.3-0.7,0.4-1,0.2c-1.1-0.6-1.7-1.8-1.7-3c0-0.5,0.3-0.9,0.8-0.9
			c0.1,0,0.2,0,0.3,0c0.3,0,0.6,0.1,0.9,0.2c0.3,0.1,0.4,0.3,0.4,0.5c0,0.3-0.2,0.5-0.5,0.5C86.2,35.5,86,35.4,85.8,35.6z"/>
		<path id="Trazado_1419" class="st1" d="M68.7,10.6c-0.1-0.3,0.1-0.5,0.4-0.7c0.3-0.2,0.5-0.4,0.8-0.6c0.3-0.2,0.6-0.2,0.7,0.2
			c0.3,0.7,0.5,1.5,0.5,2.3c0,0.4-0.2,0.6-0.6,0.5s-0.9-0.1-1.3-0.2c-0.2,0-0.4-0.2-0.4-0.4C68.8,11.5,68.7,11.1,68.7,10.6z"/>
		<path id="Trazado_1420" class="st1" d="M87.1,34.1c0.1-0.1,0.2-0.1,0.2-0.2c0.3-0.5,0.9-0.7,1.5-0.5c0.6,0.2,1,0.7,1,1.3
			c0.1,0.6-0.2,1.2-0.7,1.5c-0.5,0.3-1.2,0.3-1.7-0.1c-0.5-0.4-0.6-1-0.5-1.6C87.1,34.3,87.1,34.2,87.1,34.1L87.1,34.1z M89.1,34.8
			c0-0.3-0.3-0.6-0.6-0.6c0,0,0,0,0,0c-0.3,0-0.6,0.3-0.6,0.7c0,0.3,0.3,0.5,0.5,0.6C88.8,35.5,89.1,35.2,89.1,34.8
			C89.1,34.8,89.1,34.8,89.1,34.8L89.1,34.8z"/>
		<path id="Trazado_1421" class="st1" d="M43.8,31.5c0,0.1-0.1,0.3-0.2,0.3c-0.4,0.2-0.7,0.6-0.9,1c0,0.2-0.2,0.3-0.4,0.2
			c0,0-0.1,0-0.1,0c-0.5-0.2-1-0.3-1.5-0.2c-0.1,0-0.3,0-0.3-0.1c0,0,0-0.1,0-0.1c0.1-0.8,0.6-1.5,1.4-1.8c0.3-0.1,0.6-0.1,1,0
			c0.3,0.1,0.6,0.3,0.9,0.4C43.6,31.2,43.7,31.3,43.8,31.5z"/>
		<path id="Trazado_1422" class="st1" d="M62,10.6c-0.4-0.1-1-0.3-1.5-0.5c-0.3-0.1-0.3-0.3-0.2-0.6c0.3-0.6,0.6-1.1,1.1-1.6
			c0.4-0.4,0.7-0.4,1,0.1c0.1,0.1,0.1,0.2,0.2,0.2c0.7,1.1,0.7,1.1-0.1,2.1C62.4,10.5,62.2,10.6,62,10.6z"/>
		<path id="Trazado_1423" class="st1" d="M64.4,8.8c-0.2,0-0.4-0.1-0.5-0.3c-0.2-0.4-0.4-0.7-0.6-1.1c-0.1-0.2-0.1-0.4,0.1-0.5
			c0,0,0.1,0,0.1-0.1c0.7-0.4,1.5-0.5,2.3-0.4c0.3,0,0.4,0.2,0.3,0.5c-0.1,0.5-0.1,0.9-0.2,1.4c0,0.2-0.2,0.4-0.4,0.4
			C65.1,8.7,64.7,8.7,64.4,8.8z"/>
		<path id="Trazado_1424" class="st1" d="M66.7,8.3c0.1-0.5,0.1-0.9,0.2-1.4c0-0.3,0.2-0.3,0.4-0.3c0.3,0.1,0.6,0.2,0.8,0.4
			C68.6,7.4,69,7.6,69.4,8c0.4,0.3,0.4,0.5,0,0.8c-0.3,0.3-0.7,0.5-1,0.7c-0.1,0.1-0.3,0.1-0.4,0c-0.4-0.3-0.7-0.5-1.1-0.8
			C66.8,8.6,66.7,8.4,66.7,8.3z"/>
		<path id="Trazado_1425" class="st1" d="M70.6,13.8c0,0,0,0.1,0,0.1c-0.3,0.7-0.8,1.4-1.3,1.9c-0.4,0.3-0.4,0.2-0.7-0.1
			c-0.1-0.2-0.2-0.3-0.3-0.4c-0.5-0.5-0.4-1,0-1.5c0.6-0.9,0.4-0.9,1.4-0.6c0.2,0.1,0.5,0.1,0.7,0.2C70.5,13.4,70.6,13.6,70.6,13.8z
			"/>
		<path id="Trazado_1426" class="st1" d="M60.1,11.8c0-0.7,0.2-0.9,0.8-0.7c0,0,0,0,0,0c1,0.1,1.4,0.7,1.4,1.6c0,0.3,0,0.5-0.3,0.7
			s-0.6,0.4-1,0.5c-0.3,0.2-0.5,0.1-0.6-0.2C60.4,13,60.3,12.3,60.1,11.8z"/>
		<path id="Trazado_1427" class="st1" d="M66.2,15c0.8,0,1.4,0.5,1.6,1.2c0.1,0.2,0,0.3-0.2,0.4c-0.8,0.3-1.6,0.5-2.4,0.4
			C65,17,65,16.9,65,16.7c0-0.4,0.1-0.8,0.2-1.3c0-0.2,0.2-0.4,0.5-0.4C65.8,15,66,15,66.2,15z"/>
		<path id="Trazado_1428" class="st1" d="M63.4,16.7c-0.1,0-0.1,0-0.2-0.1c-0.6-0.3-1.1-0.7-1.6-1.2c-0.3-0.4-0.3-0.5,0.1-0.8
			c1.1-0.7,1.2-0.7,2.3,0.1c0.2,0.1,0.3,0.3,0.2,0.5c-0.1,0.4-0.2,0.8-0.4,1.2C63.8,16.6,63.6,16.7,63.4,16.7z"/>
		<path id="Trazado_1429" d="M95.9,36c0.6,0,1.1,0.5,1.1,1.1c0,0,0,0,0,0c0,0.6-0.5,1.1-1.1,1.1c-0.6,0-1.1-0.5-1.1-1.1
			c0,0,0,0,0-0.1C94.8,36.5,95.3,36,95.9,36C95.9,36,95.9,36,95.9,36z"/>
		<path id="Trazado_1430" d="M35.3,38.3c-0.6,0-1.1-0.5-1.1-1.1c0-0.6,0.5-1.1,1.1-1.1l0,0c0.6,0,1.1,0.5,1.1,1.1c0,0,0,0,0,0.1
			C36.4,37.9,35.9,38.3,35.3,38.3z"/>
		<path id="Trazado_1431" d="M46.4,12c0,0.6-0.5,1.1-1.1,1.1c0,0,0,0,0,0c-0.6,0-1.1-0.5-1.1-1.1c0-0.6,0.5-1.1,1.1-1.1
			C45.9,11,46.4,11.4,46.4,12z"/>
		<path id="Trazado_1432" d="M85.3,13.2c-0.6,0-1.1-0.5-1.1-1.1c0-0.6,0.5-1.1,1.1-1.2c0,0,0,0,0,0c0.6,0,1.1,0.4,1.1,1
			c0,0,0,0,0,0.1C86.4,12.7,85.9,13.2,85.3,13.2z"/>
		<path id="Trazado_1433" class="st1" d="M49,52.6c-0.1,0-0.1,0-0.2-0.1c-0.3-0.3-0.6-0.6-0.8-0.9c-0.1-0.1,0-0.3,0.1-0.4
			c0.8-0.9,1.2-0.9,1.9,0.1c0.1,0.1,0.1,0.2,0.1,0.3C49.8,52,49.5,52.3,49,52.6z"/>
		<path id="Trazado_1434" class="st1" d="M50.1,48.9c0,0.1,0,0.2-0.1,0.3c-0.2,0.2-0.5,0.4-0.7,0.6c-0.1,0.1-0.3,0.1-0.5,0
			c0,0,0,0,0,0l-0.1-0.1c-1-1.1-0.9-0.8,0.1-1.7c0.1-0.1,0.3-0.2,0.5-0.1c0.3,0.3,0.6,0.6,0.8,0.9C50.1,48.9,50.1,48.9,50.1,48.9z"
			/>
		<path id="Trazado_1435" class="st1" d="M81.9,50c0.1,0,0.1,0.1,0.2,0.1c0.1,0,0.1,0.1,0.2,0.2c0.9,0.9,0.8,1.1-0.2,1.8
			c-0.1,0.1-0.3,0.1-0.5,0c0,0,0,0,0,0c-0.1-0.1-0.1-0.1-0.2-0.2c-0.8-0.8-0.7-1.2,0.3-1.7C81.8,50,81.8,50,81.9,50z"/>
		<path id="Trazado_1436" class="st1" d="M52.7,51.5c0,0.1,0,0.2-0.1,0.3c-0.2,0.2-0.5,0.4-0.7,0.6c-0.1,0.1-0.3,0.2-0.5,0
			c0,0,0,0,0-0.1c-0.2-0.2-0.4-0.5-0.6-0.7c-0.2-0.1-0.2-0.3-0.1-0.5c0,0,0-0.1,0.1-0.1c0,0,0.1-0.1,0.1-0.1
			c0.3-0.2,0.5-0.6,0.8-0.5c0.4,0.1,0.7,0.6,1,0.9C52.7,51.4,52.7,51.5,52.7,51.5z"/>
		<path id="Trazado_1437" class="st1" d="M52.7,49c0,0.2-0.1,0.3-0.3,0.4c-0.8,0.8-0.9,0.8-1.6-0.1c-0.4-0.4-0.4-0.5,0-0.9
			c0.8-0.7,0.8-0.7,1.5,0.1C52.5,48.7,52.7,48.8,52.7,49z"/>
		<path id="Trazado_1438" class="st1" d="M81.9,49.5c-0.1,0-0.2,0-0.3-0.1c-0.1-0.1-0.1-0.2-0.2-0.2c-0.2-0.3-0.6-0.4-0.5-0.8
			c0.1-0.4,0.5-0.6,0.8-0.9c0.1-0.1,0.3-0.1,0.4,0c0,0,0,0,0,0c0.3,0.3,0.5,0.5,0.8,0.8c0.1,0.1,0.1,0.3,0,0.4c0,0,0,0,0,0
			c-0.3,0.3-0.5,0.5-0.9,0.7C82,49.5,81.9,49.5,81.9,49.5z"/>
		<path id="Trazado_1439" class="st1" d="M79.2,52.1c-0.3-0.3-0.5-0.6-0.8-0.8c-0.1-0.1-0.1-0.1-0.1-0.2c-0.1-0.6,0.5-0.7,0.7-1
			c0.2-0.2,0.4-0.2,0.6,0c0.2,0.2,0.4,0.5,0.6,0.7c0.1,0.1,0.1,0.3,0,0.4c0,0,0,0,0,0C79.9,51.7,79.6,51.9,79.2,52.1z"/>
		<path id="Trazado_1440" class="st1" d="M79.3,47.4c0.1,0,0.2,0,0.3,0.1c0.2,0.3,0.5,0.5,0.7,0.8c0.2,0.3,0.1,0.5-0.1,0.6
			c-0.3,0.2-0.5,0.9-1.1,0.5c-0.3-0.2-0.5-0.5-0.7-0.8c-0.1-0.1-0.1-0.3,0-0.4c0,0,0,0,0,0c0.3-0.3,0.6-0.5,0.9-0.7
			C79.2,47.4,79.2,47.4,79.3,47.4z"/>
		<path id="Trazado_1441" d="M61.1,4.4c0,0.4-0.3,0.8-0.7,0.9c0,0,0,0-0.1,0c-0.5,0-0.8-0.4-0.8-0.8c0,0,0,0,0,0
			c0-0.5,0.3-0.9,0.8-0.9C60.7,3.6,61,3.9,61.1,4.4C61.1,4.4,61.1,4.4,61.1,4.4z"/>
		<path id="Trazado_1442" d="M34.9,31.5c0.5,0,0.8,0.3,0.9,0.8c0,0,0,0,0,0c0,0.4-0.4,0.8-0.9,0.8c-0.4,0-0.8-0.3-0.9-0.8
			C34.1,31.9,34.4,31.5,34.9,31.5C34.9,31.5,34.9,31.5,34.9,31.5z"/>
		<path id="Trazado_1443" d="M66.3,3.9c0,0.5-0.4,0.8-0.9,0.8c0,0,0,0,0,0c-0.4,0-0.8-0.3-0.8-0.8c0,0,0,0,0,0
			c0-0.4,0.4-0.8,0.8-0.8C65.9,3.1,66.3,3.5,66.3,3.9z"/>
		<path id="Trazado_1444" d="M71,5.2c-0.4,0-0.8-0.3-0.8-0.8c0-0.5,0.4-0.8,0.9-0.8c0.4,0,0.8,0.3,0.8,0.8C71.8,4.8,71.5,5.2,71,5.2
			C71,5.2,71,5.2,71,5.2z"/>
		<path id="Trazado_1445" d="M95.8,31.5c0.5,0,0.8,0.3,0.9,0.8c0,0,0,0,0,0c0,0.5-0.4,0.8-0.8,0.8c0,0,0,0,0,0
			c-0.4,0-0.8-0.3-0.8-0.8C95,31.8,95.3,31.5,95.8,31.5C95.8,31.5,95.8,31.5,95.8,31.5L95.8,31.5z"/>
		<path id="Trazado_1446" class="st1" d="M50.3,50.7c-0.6-0.5-0.6-0.6,0-1c0.2,0.1,0.5,0.3,0.5,0.5C50.8,50.5,50.5,50.6,50.3,50.7z"
			/>
		<path id="Trazado_1447" class="st1" d="M80,49.7c0.1-0.2,0.3-0.4,0.5-0.5c0.2,0.1,0.4,0.3,0.5,0.5C80.7,50.4,80.5,50.4,80,49.7z"
			/>
		<path id="Trazado_1448" class="st0" d="M57.2,24.5c0,0.6-0.4,1.1-1,1.1c0,0,0,0-0.1,0c-0.6,0-1.2-0.4-1.2-1.1c0,0,0,0,0,0
			c-0.1-0.6,0.4-1.2,1-1.2c0.6-0.1,1.2,0.4,1.2,1C57.1,24.4,57.1,24.5,57.2,24.5L57.2,24.5z M56.5,24.7c0-0.3-0.2-0.5-0.4-0.6
			c0,0,0,0,0,0c-0.2,0-0.4,0.1-0.5,0.3c0,0,0,0.1,0,0.1c0,0.3,0.2,0.5,0.4,0.5c0,0,0,0,0,0C56.3,25,56.5,24.9,56.5,24.7z"/>
		<path id="Trazado_1449" class="st0" d="M55.9,31.3c-0.6,0-1.1-0.6-1.1-1.2c0.1-0.6,0.5-1.1,1.2-1.1c0.6,0,1.1,0.5,1.2,1.1
			C57.1,30.8,56.6,31.3,55.9,31.3z M55.5,30.1c0,0.3,0.1,0.5,0.4,0.5c0.2,0,0.5-0.1,0.5-0.4c0,0,0,0,0,0c0-0.3-0.2-0.5-0.5-0.5
			c0,0,0,0,0,0C55.7,29.7,55.5,29.9,55.5,30.1L55.5,30.1z"/>
		<path id="Trazado_1450" class="st0" d="M76,24.6c0,0.6-0.6,1.1-1.2,1.1c-0.6,0-1.1-0.6-1.2-1.2c0.1-0.7,0.6-1.2,1.3-1.2
			C75.5,23.4,76,24,76,24.6z M74.7,25c0.2,0,0.4-0.2,0.5-0.4c0-0.2-0.2-0.5-0.5-0.5c-0.2,0-0.5,0.1-0.5,0.4
			C74.2,24.7,74.5,25,74.7,25L74.7,25z"/>
		<path id="Trazado_1451" class="st0" d="M75.1,31.3c-0.6,0-1.1-0.5-1.2-1.1c0-0.6,0.6-1.1,1.2-1.2c0.6,0,1.1,0.5,1.1,1.2
			C76.2,30.8,75.7,31.3,75.1,31.3z M75.5,30.2c0-0.3-0.2-0.5-0.5-0.5c-0.2,0-0.4,0.1-0.4,0.3c0,0,0,0,0,0.1c0,0.3,0.2,0.5,0.5,0.5
			C75.3,30.5,75.5,30.4,75.5,30.2L75.5,30.2z"/>
	</g>
</g>
</svg>
