<?xml version="1.0" encoding="utf-8"?>
<!-- Generator: Adobe Illustrator 24.3.0, SVG Export Plug-In . SVG Version: 6.00 Build 0)  -->
<svg version="1.1" id="Layer_1" xmlns="http://www.w3.org/2000/svg" xmlns:xlink="http://www.w3.org/1999/xlink" x="0px" y="0px"
	 viewBox="0 0 131.1 114.1" style="enable-background:new 0 0 131.1 114.1;" xml:space="preserve">
<g id="Grupo_481" transform="translate(-195.644 -2979.422)">
	<g id="Grupo_478" transform="translate(220.996 2979.422)">
		<path id="Trazado_1330" d="M13.9,14.9c-1.1,2.2-0.4,6.2-0.3,6.7c-0.8-0.7-1.5-1.4-2.1-1.9c0,0-0.1-0.1-0.1-0.2c0-0.1,0-0.1,0-0.2
			c0.1-0.8-0.2-1.6-0.9-2C10,17.1,9.5,16.8,9,16.6c-0.6-0.3-1.2-0.8-1.6-1.3c-0.1-0.1-0.1-0.1-0.2-0.2l-0.1,0c0,0.1,0,0.3,0.1,0.4
			c0.1,0.5,0.3,1.1,0.4,1.6c0.1,0.7,0.4,1.4,0.8,2c0.4,0.7,1.2,1,2,0.9c0,0,0.1,0,0.1,0c2.4,2.4,6.6,7,10.7,11.5
			c-0.6-0.1-1.4-0.2-2-0.3c0,0-0.2,0-0.4,0c-0.1,0-0.3-0.1-0.4-0.1c0,0-0.1,0-0.1-0.1c-0.5-0.6-1.3-0.9-2-0.8c-0.7,0.1-1.4,0.5-2,1
			c-0.4,0.3-0.9,0.6-1.4,0.9c-0.1,0.1-0.2,0.2-0.3,0.2l0.1,0.1c0.1,0,0.2,0,0.3,0c0.7-0.1,1.4-0.1,2,0.1c0.5,0.2,1,0.3,1.5,0.4
			c0.8,0.2,1.6-0.2,2.1-0.8c0,0,0.1-0.1,0.1-0.1c0.2-0.1,0.4-0.1,0.6-0.1c0.4,0.1,1.4,0.3,2,0.4c0.3,0.1,0.6,0.1,0.8,0.2
			c5,5.3,10,10.7,11.3,12.7c0.1-0.1,0.2-0.1,0.3-0.2c0.3-0.2,0.4-0.7,0.2-1c-0.1-0.1-0.2-0.2-0.4-0.3c-0.1-0.1-0.3-0.1-0.4-0.1
			c0-0.1,0-0.2,0-0.3c0.2-0.7,0.6-1.4,1-2c0.1-0.1,0.2-0.2,0.4-0.1c0.1,0,0.2,0,0.3-0.1c0.2-0.1,0.4-0.4,0.3-0.7
			c-0.1-0.2,0-0.5,0.3-0.6c0.3-0.1,0.5-0.3,0.8-0.4c0.2-0.1,0.3-0.1,0.5,0.1c0.2,0.3,0.4,0.5,0.7,0.7c0.2,0.2,0.5,0.1,0.7-0.1
			c0.1-0.1,0.1-0.2,0.1-0.3c0-0.3,0-0.6,0-1l0.9-0.2c0,0.6,0,1.1,0,1.6c0,0.3,0.1,0.6,0.3,0.9c0.1,0.2,0.4,0.4,0.6,0.4l0,0
			c0.3,0,0.5-0.2,0.6-0.4c0.2-0.3,0.2-0.6,0.3-0.9c0-0.5,0-1,0-1.6l0.9,0.2c0,0.3,0,0.6,0,1c0,0.3,0.2,0.5,0.5,0.5
			c0.1,0,0.2,0,0.3-0.1c0.3-0.2,0.5-0.4,0.7-0.7c0.1-0.2,0.3-0.2,0.5-0.1c0.3,0.2,0.5,0.3,0.8,0.4c0.2,0.1,0.4,0.4,0.3,0.6
			c-0.1,0.3,0,0.5,0.3,0.7c0.1,0.1,0.2,0.1,0.3,0.1c0.1-0.1,0.3,0,0.4,0.1c0.5,0.6,0.8,1.3,1,2c0,0.1,0,0.2,0,0.3
			c-0.2,0-0.3,0-0.4,0.1c-0.4,0.1-0.6,0.5-0.4,0.9c0.1,0.2,0.2,0.3,0.3,0.4c0.2,0.1,0.3,0.2,0.3,0.2c1.3-2,6.4-7.3,11.3-12.7
			c0.3-0.1,0.5-0.2,0.8-0.2c0.5-0.1,1.4-0.3,1.8-0.4c0.5-0.1,0.6,0,0.8,0.1c0,0,0.1,0.1,0.1,0.1c0.4,0.7,1.3,1,2,0.8
			c0.5-0.1,1-0.3,1.5-0.4c0.7-0.2,1.4-0.2,2-0.1c0.1,0,0.2,0,0.3,0c0.1,0,0.2,0,0.1-0.1s-0.2-0.2-0.3-0.2c-0.5-0.3-0.9-0.6-1.4-0.9
			c-0.6-0.5-1.2-0.8-2-1c-0.8-0.2-1.6,0.1-2,0.8c0,0.1-0.1,0.1-0.2,0.1c-0.1,0-0.2,0-0.4,0.1c-0.2,0-0.3,0-0.3,0
			c-0.6,0.1-1.3,0.2-2,0.3c4.1-4.4,8.2-9,10.6-11.4c0.1-0.1,0.2-0.1,0.2-0.1c0.8,0.1,1.5-0.2,2-0.9c0.4-0.6,0.7-1.3,0.8-2
			c0.1-0.5,0.3-1.1,0.4-1.6c0-0.1,0.1-0.3,0.1-0.4c0,0,0-0.1,0-0.1s-0.1,0-0.1,0.1c-0.1,0.1-0.1,0.1-0.2,0.2c-0.4,0.6-0.9,1-1.6,1.3
			c-0.5,0.2-1,0.4-1.4,0.7c-0.7,0.4-1.1,1.2-0.9,2c0,0.1,0,0.1,0,0.2c0,0.1-0.1,0.2-0.1,0.2l-0.1,0.1c-0.1,0.1-0.2,0.1-0.3,0.2
			c-0.5,0.5-1.1,1-1.7,1.6c0.1-0.6,0.7-4.6-0.3-6.7c-0.8-1.4-1.9-2.6-3.2-3.5c-0.2-0.1-0.3-0.3-0.4-0.5c0-0.1-0.1-0.2-0.2-0.3
			c-0.3-0.3-0.6-0.5-1-0.5c-0.3,0-0.6,0-0.9,0C60.5,10,60.2,10,60,10c-0.1,0-0.1,0-0.2,0s0,0,0,0s0.1,0.1,0.1,0.1
			c0.2,0.2,0.4,0.4,0.6,0.6c0.3,0.4,0.6,0.7,1,0.9c0.3,0.2,0.7,0.2,1,0.1c0,0,0.1,0,0.1-0.1s0.1,0,0.4,0.2c2.2,1.7,4.8,4.3,2.7,10.6
			c-0.1,0.3-0.2,0.5-0.4,0.7c-0.8,0.8-1.7,1.6-2.6,2.4c0-0.3,0-0.5,0-0.8c0-1.5-0.1-3.1-0.5-4.5c-0.1-0.3-0.2-0.6-0.3-0.9
			c0,0,0,0-0.1-0.1c-0.2-0.4-0.1-0.5-0.1-0.5c0.4-0.6,0.4-1.4,0.1-2c-0.2-0.5-0.6-0.9-1-1.1c-0.8-0.4-1.4-1-1.9-1.7
			c0,0-0.1-0.1-0.1-0.1c0,0,0,0.1,0,0.1c0,0.7,0.1,1.4,0.1,2.1c0,1.1,0.5,2.1,1.4,2.8c0.1,0,0.1,0.1,0.2,0.1c0.1,0,0.2,0.1,0.2,0.1
			c0.3,0.2,0.5,0.4,0.6,0.7c0.6,1.5,0.8,3.1,0.7,4.6c0,0.6-0.2,1.2-0.3,1.8c0,0.2-0.1,0.4-0.3,0.6c-3.6,3.4-7.7,7.2-10.9,10.2
			c0,0-0.1,0-0.1,0c-0.4-0.4-1.3-1.3-2.6-2.6l-0.5,0.6c1.2,1.3,2.1,2.2,2.2,2.3c0.1,0.1,0.2,0.2,0.2,0.3c-1,0.9-1.8,1.7-2.5,2.4
			c0,0,0,0-0.1,0.1c-0.2,0.2-0.5,0.4-0.8,0.6c0-0.1,0-0.3,0.1-0.3c0.2-1.1,0.1-2.2,0-3.3c0-0.2-0.2-0.2-0.4-0.2
			c-0.4,0.1-0.7,0.2-1.1,0.3c-0.8,0.4-2.2,1-2.3,1c-0.1-0.5-0.3-1-0.4-1.7l0,0c-0.1-0.4-0.1-0.8-0.2-1.1c-0.2-1.3-0.3-2.7-0.4-4
			c-0.1-0.6,0-1.1,0-1.7c0.2-1.1,0.6-2.1,1.3-3c0.3-0.4,0.6-0.8,0.9-1.2c3.3-3.5,10.9-11.7,14.8-15.6l0,0c0,0,0.9-0.8,0.9-0.8
			c0.9,0.2,1.6-0.5,2.1-1.1c0.4-0.6,0.7-1.3,0.8-2c0.1-0.5,0.3-1.1,0.4-1.6c0-0.1,0.1-0.3,0.1-0.4c0-0.1,0-0.1-0.1,0
			c-0.1,0.1-0.1,0.1-0.2,0.2c-0.4,0.6-0.9,1-1.6,1.3c-0.5,0.2-1,0.4-1.4,0.7c-0.7,0.4-1.1,1.2-1,2c0,0.1-0.1,0.2-0.2,0.3l0,0
			c-0.3,0.2-0.5,0.5-0.6,0.5c-0.8,0.9-2.1,2.1-3.6,3.6c0.5-2.5-0.3-5.1-2.1-6.9c-2.3-2.3-5.9-1.8-5.9-1.8c-1.3,0.1-2.5,0.7-3.5,1.6
			c-0.1,0.1-0.3,0.2-0.5,0.2c-0.1,0-0.2,0-0.3,0.1c-0.4,0.2-0.6,0.5-0.7,0.9C41,6.6,41,6.9,40.9,7.2c-0.1,0.2-0.2,0.4-0.3,0.7
			c0,0.1,0,0.1-0.1,0.2c0,0.1,0,0.1,0,0s0.1,0,0.1-0.1c0.2-0.1,0.5-0.3,0.7-0.4c0.4-0.2,0.8-0.4,1.1-0.7c0.3-0.2,0.4-0.6,0.3-0.9
			c0,0,0-0.1,0-0.1c0-0.1,0-0.2,0.5-0.5c0,0,0.1,0,0.1-0.1c0.5-0.3,1-0.5,1.5-0.7c1.9-0.6,4-0.3,5.6,0.9c2.9,2.1,3.5,6.1,1.4,9
			c-0.1,0.2-0.3,0.3-0.4,0.5c-3.9,3.8-8.3,8-10.3,10.1c0,0-0.1,0.1-0.1,0.1c-0.1,0.1-0.4,0.1-0.4-1c0-0.3,0-0.7,0-1.2
			c0.2,0,0.4-0.1,0.7-0.1c0.6-0.2,1.2-0.5,1.7-0.9l0,0c0.5-0.5,0.9-1.1,1-1.8c0.2-0.7,0.4-1.3,0.5-2c0,0,0-0.1,0-0.1
			c0,0-0.1,0-0.1,0c-0.6,0.6-1.4,1-2.2,1.2c-0.5,0.2-0.9,0.5-1.3,0.9c-0.2,0.3-0.4,0.6-0.4,0.9l0,0v0c0,0.1,0,0.1,0,0.2l-0.1,0.8
			l-0.1-0.8c0-0.1,0-0.1,0-0.2v0l0,0c-0.1-0.3-0.2-0.6-0.4-0.9c-0.3-0.4-0.8-0.7-1.3-0.9c-0.8-0.2-1.6-0.7-2.2-1.2
			c0,0-0.1-0.1-0.1,0c0,0,0,0.1,0,0.1c0.2,0.7,0.3,1.4,0.5,2c0.2,0.7,0.5,1.3,1,1.8l0,0c0.5,0.5,1,0.8,1.7,0.9
			c0.2,0.1,0.4,0.1,0.7,0.1c0,0.4,0,0.9,0,1.2c0,1.1-0.3,1.1-0.4,1c-0.1,0-0.1-0.1-0.1-0.1c-2-2.1-6.4-6.3-10.3-10.1
			c-2.4-2.6-2.2-6.7,0.5-9.1c0.2-0.1,0.3-0.3,0.5-0.4c1.6-1.2,3.7-1.5,5.6-0.9c0.7,0.2,1.4,0.5,1.9,1c0.2,0.2,0.2,0.2,0.2,0.3
			s0,0.1,0,0.1c-0.1,0.4,0.1,0.7,0.3,0.9c0.3,0.3,0.7,0.5,1.1,0.7c0.2,0.1,0.5,0.2,0.7,0.4c0,0,0.1,0,0.1,0.1s0,0,0,0
			c0,0,0-0.1-0.1-0.2c-0.1-0.2-0.2-0.4-0.3-0.7c-0.1-0.3-0.2-0.6-0.3-0.9c-0.1-0.4-0.4-0.7-0.7-0.9c-0.1-0.1-0.2-0.1-0.3-0.1
			C38,5.3,37.8,5.2,37.6,5h0c-0.9-0.9-2.1-1.4-3.3-1.5c0,0-3.6-0.5-5.9,1.8c-1.8,1.8-2.6,4.4-2.1,6.9c-1.5-1.5-2.8-2.7-3.6-3.6
			c-0.1-0.1-0.3-0.3-0.6-0.5l0,0c-0.1-0.1-0.2-0.2-0.2-0.3c0.1-0.8-0.3-1.6-1-2c-0.5-0.3-0.9-0.5-1.4-0.7c-0.6-0.3-1.2-0.8-1.6-1.3
			c-0.1-0.1-0.1-0.1-0.2-0.2c-0.1,0-0.1,0-0.1,0c0,0.1,0,0.3,0.1,0.4c0.1,0.5,0.3,1.1,0.4,1.6c0.1,0.7,0.4,1.4,0.8,2
			C19.3,8.4,20,9,20.9,8.8c0,0,0.9,0.8,0.9,0.8l0,0c3.9,3.9,11.4,12.1,14.8,15.6c0.3,0.4,0.6,0.7,0.9,1.2c0.6,0.9,1.1,1.9,1.3,3
			c0.1,0.6,0.1,1.1,0,1.7c-0.1,1.4-0.3,2.7-0.4,4c0,0.4-0.1,0.8-0.2,1.1l0,0c-0.1,0.6-0.3,1.2-0.4,1.7c-0.1,0-1.5-0.6-2.3-1
			c-0.3-0.1-0.7-0.2-1.1-0.3c-0.2,0-0.4,0-0.4,0.2c-0.2,1.1-0.2,2.2,0,3.3c0,0.1,0,0.2,0.1,0.3c-0.3-0.2-0.5-0.4-0.8-0.6
			c0,0,0,0-0.1-0.1c-0.7-0.7-1.6-1.5-2.5-2.4c0-0.1,0.1-0.3,0.2-0.3c0.1-0.1,1.8-1.8,3-3.1l-0.5-0.6c-1.2,1.3-2.9,3-3.3,3.4
			c0,0-0.1,0-0.1,0c-3.1-2.9-7.2-6.8-10.9-10.2c-0.1-0.2-0.2-0.4-0.3-0.6c-0.2-0.6-0.3-1.2-0.3-1.8c-0.1-1.6,0.1-3.2,0.8-4.7
			c0.1-0.3,0.3-0.5,0.5-0.6c0.1,0,0.2-0.1,0.2-0.1c0.1,0,0.1-0.1,0.2-0.1c0.9-0.7,1.4-1.7,1.4-2.8c0.1-0.7,0.1-1.4,0.1-2.1
			c0,0,0-0.1,0-0.1c0,0-0.1,0-0.1,0.1c-0.5,0.7-1.1,1.3-1.9,1.7c-0.5,0.3-0.8,0.7-1,1.1c-0.4,0.6-0.3,1.4,0.1,2
			c0.1,0.1,0.1,0.2-0.1,0.5l0,0c0,0.1-0.1,0.1-0.1,0.1c-0.1,0.3-0.3,0.6-0.3,0.9c-0.4,1.5-0.5,3-0.5,4.5c0,0.3,0,0.5,0,0.8
			c-0.9-0.9-1.8-1.7-2.6-2.4c-0.2-0.2-0.3-0.4-0.4-0.7c-2.1-6.4,0.5-8.9,2.7-10.6c0.3-0.2,0.4-0.2,0.4-0.2c0,0,0.1,0,0.1,0.1
			c0.3,0.2,0.7,0.1,1-0.1c0.4-0.2,0.7-0.5,1-0.9c0.2-0.2,0.4-0.4,0.6-0.6l0.1-0.1c0,0,0,0,0,0s-0.1,0-0.2,0c-0.2,0-0.5,0.1-0.7,0.1
			c-0.3,0-0.6,0-0.9,0c-0.4,0-0.8,0.2-1,0.5c-0.1,0.1-0.1,0.2-0.2,0.3c-0.1,0.2-0.3,0.4-0.4,0.5C15.8,12.3,14.7,13.5,13.9,14.9z
			 M45.3,37.7c0,0,0,0.1,0,0.2c-0.1,0.4-0.1,0.7-0.1,1.2l-1-0.5C44.4,38.2,44.8,37.9,45.3,37.7L45.3,37.7z M35.2,37.7
			c0.5,0.2,0.8,0.5,1.1,0.8l-1,0.5c-0.1-0.5-0.1-0.8-0.1-1.2C35.1,37.8,35.1,37.7,35.2,37.7L35.2,37.7z"/>
		<path id="Trazado_1331" d="M45.6,47.5c0.2-0.5,0.5-1,0.7-1.4c-0.1-0.1-0.2-0.2-0.3-0.2c-0.2-0.2-0.4-0.3-0.7-0.4
			c-0.3-0.1-0.7,0.1-0.8,0.4c0,0.1,0,0.2,0,0.4C44.8,46.7,45.1,47.2,45.6,47.5z"/>
		<path id="Trazado_1332" d="M52.3,66.9c1.5,0.4,3.1,0.6,4.6,0.5c4.9-2.7,9.1-6.6,12.3-11.3c0-0.1,0.1-0.1,0.1-0.2
			c0-0.1,0-0.1-0.4-0.4c-0.4-0.2-0.7-0.5-1.1-0.6c-0.3-0.1-0.7-0.2-1.1-0.1c-0.3,0-0.5,0.1-0.7,0.3c-0.3,0.2-0.5,0.5-0.5,0.9
			c0,0.2,0,0.8,0.5,0.8c0.2,0-0.1-0.1,0-0.3c0-0.2,0.1-0.4,0.3-0.5c0.2-0.2,0.5-0.2,0.7-0.2c0.3,0.1,0.6,0.4,0.6,0.7
			c0.1,0.6-0.2,1.1-0.6,1.5c-0.7,0.6-1.6,0.6-2.3,0.1c-0.6-0.5-1.4-0.8-2.1-0.7c-0.5,0-1,0.2-1.3,0.6c-0.5,0.6-0.7,1.4-0.6,2.2
			c0.1,0.4,0.3,0.5,0.3,0.4c-0.1-0.3,0-0.6,0.1-0.8c0.3-0.4,0.9-0.6,1.3-0.3c0.3,0.2,0.5,0.6,0.4,0.9c-0.1,0.8-0.5,1.4-1.1,1.9
			c-0.8,0.4-1.7,0.4-2.4-0.2c-0.4-0.3-0.7-0.7-1-1.1c-0.4-0.6-1-1-1.6-1.3c-0.8-0.3-1.8-0.3-2.6,0.1c-0.8,0.4-1.3,1.1-1.5,1.9
			c-0.1,0.3,0,0.7,0,1c0,0.2,0.3,0.7,0.4,0.7c0.1,0,0-0.2,0-0.3c0.1-1.1,1.1-2,2.2-1.9c0.9,0.1,1.6,0.7,1.8,1.5
			c0.2,0.7,0,1.4-0.4,1.9C55.4,65.7,53.9,66.6,52.3,66.9z"/>
		<path id="Trazado_1333" d="M42.3,44.6c0.4,0.2,0.9,0.3,1.3,0.1c0.6-0.2,1.1-0.6,1.4-1.2c0.2-0.3,0.4-0.6,0.6-0.9
			c0.1-0.1,0.1-0.3,0-0.4c0,0,0,0-0.1,0c-1-0.8-2.4-0.8-3.5-0.2c-0.3,0.2-0.5,0.5-0.6,0.8c-0.4,0.8-0.4,1.8,0,2.7
			c0.5,1,0.6,1.2,1,1.5c0.1,0.1,0.2,0.2,0.2,0.3c0.1,0.3,0.3,0,0.4-0.2c0.1-0.1,0.1-0.3,0-0.4c-0.1-0.4-0.4-0.7-0.8-0.8
			c-0.3-0.2-0.3-0.6-0.2-0.8C42,44.8,42.1,44.5,42.3,44.6z M43.3,43.2c0.2,0,0.4,0.1,0.4,0.3c0,0,0,0,0,0c0,0.2-0.1,0.4-0.3,0.4
			c0,0,0,0-0.1,0c-0.2,0-0.4-0.2-0.4-0.4c0,0,0,0,0,0C43,43.3,43.1,43.2,43.3,43.2L43.3,43.2z"/>
		<path id="Trazado_1334" d="M35.1,45.4c-0.2,0.1-0.5,0.3-0.7,0.4c-0.1,0.1-0.2,0.2-0.3,0.2c0.3,0.4,0.5,1,0.7,1.4
			c0.5-0.3,0.8-0.8,1-1.3c0.1-0.3-0.1-0.7-0.4-0.7C35.4,45.4,35.2,45.4,35.1,45.4z"/>
		<path id="Trazado_1335" d="M14.6,56.7c0.4,0,0.5-0.6,0.5-0.8c0-0.4-0.2-0.7-0.5-0.9c-0.2-0.1-0.5-0.2-0.7-0.3
			c-0.4,0-0.7,0-1.1,0.1c-0.4,0.2-0.8,0.4-1.1,0.6c-0.4,0.3-0.4,0.3-0.4,0.4c0,0.1,0.1,0.2,0.1,0.2c3.1,4.7,7.3,8.6,12.3,11.3
			c1.6,0,3.1-0.2,4.6-0.5c-1.6-0.3-3.1-1.2-4.1-2.5c-0.4-0.5-0.6-1.3-0.4-1.9c0.3-1.1,1.4-1.7,2.5-1.4c0.8,0.2,1.5,1,1.5,1.8
			c0,0.1,0,0.3,0,0.3c0.1,0.1,0.3-0.5,0.4-0.7c0.1-0.3,0.1-0.6,0-1c-0.2-0.8-0.7-1.5-1.5-1.9c-0.8-0.4-1.7-0.5-2.6-0.1
			c-0.6,0.3-1.2,0.8-1.6,1.3c-0.3,0.4-0.7,0.7-1,1.1c-0.7,0.5-1.6,0.6-2.4,0.2c-0.6-0.4-1.1-1.1-1.1-1.9c-0.1-0.5,0.3-1,0.8-1.1
			c0.4-0.1,0.7,0.1,0.9,0.4c0.2,0.2,0.2,0.6,0.1,0.8c0,0.1,0.3,0,0.3-0.4c0.2-0.8-0.1-1.6-0.6-2.2c-0.4-0.3-0.8-0.6-1.3-0.6
			c-0.8-0.1-1.6,0.1-2.1,0.7c-0.7,0.5-1.7,0.5-2.3-0.1C13.2,57.5,13,57,13,56.4c0-0.3,0.3-0.6,0.6-0.7c0.3-0.1,0.5,0,0.7,0.2
			c0.2,0.1,0.3,0.3,0.3,0.5C14.7,56.6,14.4,56.7,14.6,56.7z"/>
		<path id="Trazado_1336" d="M38.2,45.7c-0.4,0.2-0.6,0.5-0.8,0.8c0,0.1,0,0.3,0,0.4c0.1,0.2,0.3,0.5,0.4,0.2c0-0.1,0.1-0.3,0.2-0.3
			c0.4-0.3,0.5-0.5,1-1.5c0.4-0.8,0.3-1.8,0-2.7c-0.1-0.3-0.3-0.6-0.6-0.8c-1.1-0.7-2.5-0.6-3.5,0.2c-0.2,0.1-0.2,0.2-0.2,0.4
			c0,0,0,0.1,0,0.1c0.2,0.3,0.4,0.6,0.6,0.9c0.3,0.6,0.8,1,1.4,1.2c0.4,0.1,0.9,0.1,1.3-0.1c0.2-0.1,0.3,0.2,0.4,0.3
			C38.5,45.1,38.5,45.5,38.2,45.7z M37.1,43.9c-0.2,0-0.4-0.1-0.4-0.3c0,0,0,0,0-0.1c0-0.2,0.1-0.4,0.3-0.4c0,0,0,0,0,0
			c0.2,0,0.3,0.1,0.4,0.3C37.5,43.8,37.3,43.9,37.1,43.9C37.1,43.9,37.1,43.9,37.1,43.9L37.1,43.9z"/>
		<path id="Trazado_1337" d="M52.3,44c0-0.3-0.2-0.5-0.4-0.6c-0.1,0-0.3,0-0.4,0c0,0-0.1,0-0.1,0c-0.1,0-0.3,0.1-0.4,0.1
			c-0.3,0.1-0.5,0.2-0.8,0.3c-0.2,0.1-0.4,0.3-0.5,0.4c-0.1,0.1-0.1,0.1-0.2,0.2c-0.1,0.1-0.2,0.2-0.2,0.4c0,0.2,0,0.5,0.2,0.6
			c0,0,0.1,0,0.1,0.1c0.2,0.1,0.4,0.2,0.6,0.2c0.1,0.1,0.3,0.1,0.4,0.1c0.1,0,0.1,0,0.1-0.1c0-0.1,0-0.1,0.1-0.2
			c0.1-0.1,0-0.2-0.1-0.3c0,0,0,0,0,0c-0.1-0.1-0.3-0.2-0.4-0.2C50,45.1,50,45,50.1,44.9c0.1-0.1,0.2-0.2,0.3-0.3
			c0.1-0.1,0.2-0.1,0.2-0.2c0.2-0.1,0.4-0.2,0.6-0.2c0.1,0,0.1,0,0.2,0c0.1,0,0.1,0.1,0.1,0.2c0,0,0,0.1,0,0.1c0,0.1,0,0.2,0,0.3
			c0,0.1,0,0.2,0.1,0.2c0,0,0.2,0,0.2,0c0.1,0,0.2,0,0.3-0.2c0-0.2,0.1-0.4,0.1-0.5C52.2,44.2,52.2,44.1,52.3,44L52.3,44
			C52.3,44,52.3,44,52.3,44z"/>
		<path id="Trazado_1338" d="M54,46.2c0,0-0.1,0-0.1,0c-0.1,0-0.2,0-0.3,0c-0.1,0-0.2,0-0.3,0.1c0,0-0.1,0.1-0.1,0.2
			c0,0.1,0,0.2,0.1,0.3c0.2,0.1,0.4,0.1,0.5,0.2c0.1,0,0.2,0.1,0.3,0.1v0c0,0,0,0,0.1,0c0.3,0,0.5-0.1,0.6-0.4c0-0.1,0-0.3,0-0.4
			c0,0,0-0.1,0-0.1c0-0.1-0.1-0.3-0.1-0.4c-0.1-0.3-0.1-0.6-0.3-0.8c-0.1-0.2-0.3-0.4-0.4-0.5c-0.1-0.1-0.1-0.1-0.2-0.2
			c-0.1-0.1-0.2-0.2-0.4-0.3c-0.2-0.1-0.5,0-0.6,0.1c0,0,0,0.1-0.1,0.1c-0.1,0.2-0.2,0.4-0.3,0.5c-0.1,0.1-0.1,0.3-0.2,0.4
			c0,0.1,0,0.1,0.1,0.2c0.1,0,0.1,0.1,0.2,0.1c0.1,0.1,0.2,0,0.3-0.1c0,0,0,0,0,0c0.1-0.1,0.2-0.2,0.3-0.4c0.1-0.1,0.1-0.2,0.2-0.1
			c0.1,0.1,0.2,0.2,0.3,0.4c0.1,0.1,0.1,0.2,0.1,0.3c0.1,0.2,0.1,0.4,0.2,0.6c0,0.1,0,0.1,0,0.2C54.2,46.2,54.1,46.2,54,46.2
			C54,46.2,54,46.2,54,46.2z"/>
		<path id="Trazado_1339" d="M49.6,47c0,0,0.1,0,0.1,0c0.1,0,0.2,0,0.3,0c0.1,0,0.2,0,0.2-0.1c0,0,0-0.2,0.1-0.2
			c0-0.1,0-0.2-0.2-0.3c-0.2,0-0.4-0.1-0.5-0.1c-0.1,0-0.2,0-0.3-0.1v0c0,0,0,0-0.1,0c-0.3,0-0.5,0.2-0.6,0.4c0,0.1,0,0.3,0,0.4
			c0,0,0,0.1,0,0.1c0,0.1,0.1,0.3,0.1,0.4c0.1,0.3,0.2,0.5,0.3,0.8c0.1,0.2,0.3,0.4,0.4,0.5c0.1,0.1,0.1,0.1,0.2,0.2
			c0.1,0.1,0.2,0.2,0.4,0.2c0.2,0.1,0.5,0,0.6-0.2c0,0,0-0.1,0.1-0.1c0.1-0.3,0.4-0.7,0.3-1c0-0.1-0.2-0.1-0.2-0.2
			c-0.3,0-0.4,0.3-0.5,0.5c-0.1,0.1-0.1,0.2-0.2,0.1c-0.1-0.1-0.2-0.2-0.3-0.3c-0.1-0.1-0.1-0.2-0.2-0.2c-0.1-0.2-0.2-0.4-0.2-0.6
			c0-0.1,0-0.1,0-0.2C49.5,47.1,49.6,47,49.6,47z"/>
		<path id="Trazado_1340" d="M51.9,45.5c-0.1,0-0.3,0-0.4,0c-0.2,0-0.3,0.1-0.4,0.2C51,45.9,51,46,50.9,46.1
			c-0.2,0.3-0.2,0.6-0.1,0.8c0.1,0.5,0.6,0.8,1,0.8c0.2,0,0.5-0.1,0.6-0.2c0.1-0.1,0.3-0.3,0.3-0.4c0.1-0.2,0.1-0.3,0.1-0.5
			c0-0.1,0-0.2-0.1-0.3c0-0.1-0.1-0.2-0.1-0.3c0,0,0-0.1-0.1-0.1c-0.1-0.1-0.1-0.1-0.2-0.2C52.3,45.6,52.1,45.5,51.9,45.5z
			 M52.5,46.7c0,0,0,0.1,0,0.1c0,0.2-0.2,0.4-0.4,0.5c-0.1,0-0.1,0-0.2,0.1l0,0c-0.2,0-0.4-0.1-0.5-0.2c-0.1-0.2-0.2-0.4-0.1-0.6
			c0,0,0,0,0,0c0.1-0.1,0.1-0.2,0.2-0.4c0.1-0.1,0.2-0.1,0.3-0.1c0.1,0,0.1,0,0.2,0c0.2,0,0.3,0.1,0.4,0.2c0,0.1,0.1,0.1,0.1,0.2
			C52.5,46.5,52.5,46.6,52.5,46.7L52.5,46.7z"/>
		<path id="Trazado_1341" d="M63.1,40.7c0,0.4,0.3,0.6,0.7,0.6c0.4,0,0.8-0.3,0.9-0.7c0-0.4-0.3-0.7-0.6-0.7
			C63.6,39.8,63.2,40.1,63.1,40.7C63.1,40.6,63.1,40.6,63.1,40.7z M63.6,40.5C63.6,40.5,63.6,40.5,63.6,40.5
			c0.1-0.1,0.1-0.1,0.1-0.1c0.1-0.1,0.1-0.1,0.2-0.1c0.1,0,0.1,0,0.2,0c0.1,0.1,0.2,0.2,0.2,0.3c0,0.2-0.2,0.4-0.4,0.3
			c-0.1,0-0.1,0-0.2-0.1c-0.1-0.1-0.1-0.2-0.1-0.2C63.5,40.6,63.5,40.6,63.6,40.5L63.6,40.5z"/>
		<path id="Trazado_1342" d="M44.9,13.8c-0.7-0.1-1.4-0.4-1.9-1c-0.3-0.3-0.6-0.7-0.9-1c-0.1-0.1-0.2-0.2-0.3-0.2
			c-0.1,0-0.2,0.2-0.2,0.3c0.1,0.6,0.2,1.1,0.4,1.6c0.4,0.8,1.1,1.5,2,1.9c0.9,0.6,2,0.8,3.1,0.6c1.1-0.3,2.8-0.8,3.5-1.9
			c0.7-1,1.1-2.2,1.1-3.4C52,9.2,51.3,7.7,50,6.7C49,6,47.7,5.6,46.4,5.6c-1.3,0.1-2.5,0.8-3.3,1.8C43,7.5,43,7.6,43,7.7
			c0,0.1,0.2,0.2,0.4,0.1c0.4-0.1,0.8-0.2,1.3-0.2c0.9,0,1.8,0.2,2.5,0.7c0.6,0.4,0.9,0.9,1.1,1.6c0.1,0.8,0,1.6-0.4,2.2
			C47.3,13.3,46.1,13.9,44.9,13.8z"/>
		<path id="Trazado_1343" d="M33.8,13.3c0.6-0.1,1.4-0.1,1.7-0.7c0.3-0.5,0.5-1,0.6-1.5c0.2-0.6,0.1-1.4-0.4-1.8
			c-0.2-0.2-0.4-0.3-0.5-0.5c-0.4-0.3-0.8-0.5-1.3-0.5c-0.9,0.1-1.7,0.5-2.3,1.2c-0.1,0.1-0.2,0.2-0.2,0.4c0,0.5,0.4,0.7,0.5,1.2
			c0.1,0.4,0.4,0.7,0.8,0.7c0.4,0.1,0.8,0.1,1.2,0.1c0.3,0,0.6-0.2,0.7-0.5c0.1-0.4,0-0.8-0.4-1c-0.2-0.1-0.5-0.1-0.7-0.1
			c-0.3,0-0.5,0-0.5,0.4c0,0.1,0,0.3,0,0.4c0,0.3-0.4,0-0.4-0.1c-0.2-0.3-0.2-0.6-0.1-0.9c0.3-0.6,1-0.7,1.6-0.5
			c0.7,0.1,1.2,0.8,1,1.5c0,0.1,0,0.1,0,0.2c-0.1,0.5-0.4,1-0.9,1.2c-0.6,0.2-1.3,0.2-1.9,0c-0.6-0.1-1-0.5-1-1.1
			c0-0.1-0.1-0.2-0.1-0.4c0-0.1-0.2-0.3-0.3-0.2c-0.1,0.1-0.1,0.3,0,0.4c0.1,0.5,0.2,0.9,0.3,1.4c0.1,0.2,0.2,0.3,0.3,0.4
			C32.3,13.2,33.1,13.3,33.8,13.3z"/>
		<path id="Trazado_1344" d="M33.6,15.9c0.6,0,1.2-0.1,1.8-0.3c0.5-0.2,0.5-0.4,0.4-0.5c-0.3-0.4-0.5-0.9-0.8-1.3
			c-0.1-0.1-0.3,0-0.4,0c-0.4,0-1.1,0-1.2,0.1c-0.1,0.1-0.1,0.2-0.2,0.4c0,0.3-0.1,0.6-0.1,1C33,15.8,33.1,15.8,33.6,15.9z"/>
		<path id="Trazado_1345" d="M31.3,15.4c0.5,0.2,0.6,0.2,0.7-0.3c0.1-0.3,0.2-0.6,0.3-0.9c0.1-0.1,0.1-0.3,0-0.4
			c-0.1-0.1-0.7-0.4-1-0.6C31.2,13,31,12.9,30.9,13c-0.4,0.2-0.9,0.5-1.3,0.8c-0.1,0-0.2,0.2,0.2,0.6C30.3,14.8,30.8,15.1,31.3,15.4
			z"/>
		<path id="Trazado_1346" d="M28.7,12.5c0.2,0.5,0.3,0.6,0.8,0.3c0.3-0.1,0.6-0.4,0.9-0.5c0.1-0.1,0.3-0.1,0.3-0.3
			c0-0.2-0.2-0.8-0.3-1.2c0-0.2,0-0.4-0.1-0.4c-0.5-0.2-1.1-0.3-1.5-0.5c-0.2-0.1-0.3,0-0.3,0.6C28.4,11.2,28.5,11.9,28.7,12.5z"/>
		<path id="Trazado_1347" d="M29.6,7c-0.4,0.4-0.8,0.9-1,1.5c-0.2,0.5-0.1,0.6,0.4,0.8c0.4,0.1,0.7,0.2,1,0.3c0.2,0.1,0.3,0.1,0.4,0
			c0.2-0.2,0.3-0.4,0.4-0.7c0.1-0.2,0.5-0.5,0.4-0.7c-0.3-0.5-0.7-1-1-1.4C30.3,6.8,30.1,6.7,29.6,7z"/>
		<path id="Trazado_1348" d="M37.3,14.6c0.4-0.5,0.8-1,1.1-1.6c0.2-0.5,0.2-0.6-0.4-0.8c-0.3-0.1-0.7-0.2-1-0.3
			c-0.1,0-0.3-0.1-0.4,0c-0.1,0.1-0.4,0.8-0.6,1.1c-0.1,0.1-0.2,0.3-0.2,0.4c0.3,0.5,0.5,0.9,0.8,1.3C36.7,14.9,36.9,15,37.3,14.6z"
			/>
		<path id="Trazado_1349" d="M39,10.7c0-0.7-0.2-1.4-0.4-2c-0.2-0.6-0.5-0.5-0.5-0.5c-0.5,0.3-0.9,0.6-1.4,1c-0.1,0.1,0,0.3,0,0.5
			c0.1,0.4,0.1,1.2,0.2,1.4c0.1,0.1,0.2,0.2,0.4,0.2c0.4,0,0.7,0.1,1.1,0.1C38.9,11.4,39,11.4,39,10.7z"/>
		<path id="Trazado_1350" d="M36.1,8.6c0.1,0,0.3-0.1,0.4-0.2c0.2-0.2,0.6-0.4,0.8-0.6c0.4-0.4,0.4-0.5,0-0.8
			c-0.5-0.4-1.1-0.8-1.7-1.1C35.1,5.7,35,5.7,34.9,6c-0.1,0.5-0.2,1.1-0.2,1.6c0,0.1,0.2,0.2,0.3,0.3C35.4,8.1,35.9,8.6,36.1,8.6z"
			/>
		<path id="Trazado_1351" d="M32.9,7.8c0.3,0,0.5,0,0.8-0.1c0.1-0.1,0.2-0.2,0.2-0.4c0-0.4,0.1-0.7,0.1-1.1c0.1-0.6,0-0.7-0.5-0.7
			c-0.6,0-1.2,0.1-1.8,0.3c-0.5,0.2-0.5,0.5-0.5,0.5c0.3,0.5,0.5,1,0.9,1.5C32.2,8,32.7,7.8,32.9,7.8z"/>
		<path id="Trazado_1352" d="M56.2,24.6c0-0.6-0.4-1-1-1c0,0-0.1,0-0.1,0c-0.4,0-1,0.5-0.9,0.9c0,0.6,0.4,1,0.9,1.1c0,0,0,0,0.1,0
			C55.8,25.6,56.2,25.2,56.2,24.6C56.2,24.6,56.2,24.6,56.2,24.6z M54.9,24.5c0-0.1,0.2-0.2,0.3-0.2c0.2-0.1,0.4,0.2,0.4,0.4
			c0,0.1-0.1,0.3-0.3,0.3c-0.2,0-0.4-0.2-0.4-0.4C54.9,24.6,54.9,24.5,54.9,24.5L54.9,24.5z"/>
		<path id="Trazado_1353" d="M51.9,26.8c-0.5-0.1-1,0.3-1,0.8c0,0,0,0,0,0.1c0,0.5,0.4,1,0.9,1c0,0,0.1,0,0.1,0
			c0.5,0,0.9-0.4,0.9-0.8C52.8,27.4,52.5,26.9,51.9,26.8C51.9,26.8,51.9,26.8,51.9,26.8z M51.8,28.2c-0.2,0-0.4-0.2-0.3-0.4
			c0,0,0,0,0,0c0-0.2,0.2-0.3,0.3-0.3c0.1,0,0.3-0.1,0.4,0.3c0.1,0.2-0.1,0.4-0.3,0.4C51.9,28.2,51.8,28.2,51.8,28.2z"/>
		<path id="Trazado_1354" d="M56,26.9c0.3-0.1,0.6-0.3,0.9-0.6c0.5-0.5,0.8-1.2,0.6-1.9c-0.1-0.7-0.5-1.3-1.1-1.6
			c-1.3-0.8-1-0.7-1.6-1.4c-0.5-0.6-1.2-1.1-1.9-1.5c-0.5-0.2-1-0.3-1.6-0.3c-0.6,0-1.2,0.3-1.7,0.8c0.1,0,1.5-0.2,3.9,2.2
			c0.2,0.3,0.1,0.6-0.1,0.6c-1.8-1.8-3.8-2.5-3.8-2.2s0.8,0.1,3,2.7c0.2,0.2,0.3,0.5,0.4,0.8c0.1,0.2,0,0.5-0.2,0.6
			c-0.2,0.1-0.5,0.1-0.6-0.1c-0.5-0.5-0.9-1-1.2-1.6c-0.1-0.2-0.3-0.4-0.6-0.4c-0.4,0-0.5,0.2-0.3,0.5c0.1,0.3,0.3,0.5,0.5,0.8
			c0.2,0.3,0.4,0.7,0.6,1c0,0.1,0.1,0.2,0,0.3s-0.2,0-0.3-0.1c-0.1-0.1-0.3-0.3-0.4-0.4c-0.2-0.4-0.5-0.7-0.7-1.1
			c-0.2-0.3-0.3-0.3-0.6-0.1c-0.2,0.1-0.3,0.2-0.4,0.3c-0.3,0.2-0.3,0.4,0,0.7c0.4,0.4,0.7,0.8,1.1,1.2c0.1,0.1,0.2,0.3,0.1,0.4
			c-0.1,0.1-0.3,0-0.4-0.1c-0.3-0.3-0.7-0.6-1-0.8c-0.1-0.1-0.2-0.1-0.3,0c-0.1,0.2,0,1,0.3,1.1c0.3,0.2,0.6,0.4,0.9,0.6
			c0.1,0.1,0.2,0.2,0.2,0.3s-0.1,0.2-0.2,0.2c-0.4,0.2-1.8,1-2.3,1.3c-0.3,0.1-0.5,0.5-0.3,0.8c0,0,0.1,0.1,0.1,0.1
			c0.1,0.2,0.2,0.3,0.3,0.5c0.1,0.2,0.2,0.2,0.4,0.1c0.4-0.4,1.7-1.3,2.1-1.7c0.1-0.1,0.3-0.2,0.4-0.2s0,0.3-0.1,0.4
			c-0.6,0.8-5,4.3-5.3,4.7c-0.1,0.1,0.2,0.6,0.5,0.9c0.2,0.3,0.6,0.4,0.9,0.5c0.1,0,3.7-4.6,4.6-5.5c0,0,0.2-0.2,0.3-0.1
			c0.1,0.1,0.1,0.1,0,0.2c0,0,0,0,0,0c-0.1,0.1-1.3,1.9-1.7,2.4c-0.1,0.1-0.1,0.2-0.1,0.3c0.2,0.3,0.4,0.6,0.6,0.9
			c0.1,0.1,0.3,0.2,0.4-0.1c0.1-0.2,0.1-0.3,0.2-0.5c0.4-0.6,1-1.9,1.4-2.4c0.2-0.3,0.6-0.3,0.8,0c0.3,0.4,0.7,0.7,1.1,1
			c0.3,0.2,0.8,0.4,1,0.2c0.2-0.2-0.3-0.6-0.5-0.8c-0.3-0.3-0.7-0.7-1-1c-0.1-0.1-0.1-0.3,0-0.4c0,0,0,0,0,0c0.1-0.1,0.2,0,0.3,0.1
			c0.4,0.4,0.9,0.8,1.3,1.2c0.6,0.5,0.5,0.6,1.2-0.1c0.1-0.1,0.2-0.3,0.1-0.4c0,0-0.1-0.1-0.1-0.1c-0.4-0.4-0.9-0.7-1.3-1.1
			c-0.2-0.2-0.4-0.4-0.5-0.6c-0.1-0.1,0-0.2,0-0.3c0.1-0.1,0.2-0.1,0.3,0c0.2,0.1,0.3,0.2,0.4,0.3c0.4,0.4,0.8,0.8,1.2,1.1
			c0.1,0.1,0.3,0.2,0.3,0.1c0.1-0.1,0.2-0.2,0.2-0.3c0-0.1-0.1-0.3-0.1-0.4c-0.2-0.2-0.3-0.3-0.5-0.5c-0.3-0.3-0.6-0.6-0.9-0.9
			c-0.1-0.2-0.1-0.4-0.1-0.6C55.3,27.2,55.7,27.1,56,26.9z M53.3,28.7c-0.5,0.8-1.6,1-2.3,0.5c0,0-0.1-0.1-0.1-0.1
			c-0.4-0.3-0.6-0.9-0.5-1.4c0-0.7,0.6-1.4,1.3-1.4c0.9-0.1,1.8,0.5,1.9,1.4C53.6,28,53.5,28.4,53.3,28.7L53.3,28.7z M53.6,24.5
			c0.1-0.8,0.7-1.5,1.6-1.6c0.9,0.1,1.7,0.8,1.7,1.7c-0.1,0.9-0.8,1.6-1.7,1.6C54.3,26.2,53.6,25.4,53.6,24.5L53.6,24.5z"/>
		<path id="Trazado_1355" d="M23.4,20.4c-0.6,0-1.1,0.4-1.2,1c0,0,0,0.1,0,0.1c0,0.6,0.5,1.1,1,1.1c0,0,0,0,0,0
			c0.6,0,1.1-0.5,1.1-1.2c0,0,0,0,0,0C24.5,20.9,23.8,20.4,23.4,20.4z M23.2,21.9c-0.2,0-0.4,0-0.4-0.4c0-0.4,0.2-0.5,0.5-0.5
			c0.2,0,0.3,0.2,0.3,0.3c0,0,0,0,0,0C23.7,21.8,23.5,22,23.2,21.9L23.2,21.9z"/>
		<path id="Trazado_1356" d="M27,26c0.6,0,1.1-0.5,1.1-1.1c0,0,0-0.1,0-0.1c0-0.6-0.5-1-1.1-1c0,0,0,0,0,0c-0.6,0-1.1,0.6-1,1.2
			c0,0,0,0,0,0C26,25.6,26.5,26,27,26z M27.1,24.6c0.2,0,0.3,0.2,0.4,0.3c0,0.2-0.1,0.4-0.2,0.4c0,0-0.1,0-0.1,0
			c-0.1,0-0.5,0-0.5-0.4C26.6,24.7,26.8,24.6,27.1,24.6C27,24.6,27,24.6,27.1,24.6L27.1,24.6z"/>
		<path id="Trazado_1357" d="M26.2,19c0.3,0.1,0.6,0.3,0.9,0.5c0.1,0,0.2,0.1,0.3,0c0,0,0-0.2,0-0.2c-0.3-0.5-0.8-1-1.3-1.2
			c-0.8-0.4-1.8-0.3-2.5,0.3c-0.7,0.4-1.3,0.9-1.9,1.5c-0.4,0.4-0.7,0.8-0.9,1.4c-0.4,1,0.1,2.1,1.1,2.6c0.4,0.3,0.9,0.4,1.5,0.4
			c0.2,0,0.3,0.1,0.3,0.3c0,0.3-0.1,0.6-0.4,0.8c-0.4,0.4-0.9,0.9-1.3,1.3c-0.2,0.2-0.2,0.5,0,0.7c0.2,0.2,0.4,0,0.5-0.2
			c0.2-0.2,0.4-0.4,0.6-0.6c0.4-0.3,0.7-0.6,1.1-0.9c0.1-0.1,0.2-0.1,0.3,0c0.1,0.1,0.1,0.2,0,0.4c-0.1,0.1-0.2,0.3-0.3,0.4
			c-0.4,0.4-0.9,0.8-1.3,1.1c-0.7,0.6-0.7,0.8,0.1,1.3c0.1,0.1,0.3,0.1,0.4,0c0,0,0,0,0,0c0.6-0.6,1.2-1.1,1.9-1.7
			c0.1-0.1,0.2-0.2,0.4-0.1c0.3,0.3,0,0.6-0.1,0.6c-0.4,0.4-0.9,0.8-1.3,1.2c-0.1,0.1-0.5,0.3-0.3,0.5s0.8,0.1,1.2-0.1
			c0.4-0.3,0.8-0.6,1.1-1c0.3-0.4,0.6-0.4,1-0.1c1.1,1,2.2,2.1,3.2,3.1c0.7,0.7,1.5,1.4,2.3,1.9c0.1,0,0.2,0.1,0.3,0s0-0.2-0.1-0.3
			c-1.3-1.4-2.6-2.8-3.9-4.1c-0.3-0.4-0.6-0.7-0.9-1.1c-0.1-0.1-0.1-0.3,0-0.4c0.1-0.1,0.2,0,0.3,0.1c0.1,0.1,0.2,0.2,0.3,0.3
			c0.7,0.8,1.4,1.6,2.1,2.3c0.3,0.4,5.6,5.9,5.9,6.1c0.1,0,0.3,0,0.4,0c0.1-0.1,0.1-0.2,0.1-0.4c0-0.1-0.1-0.2-0.2-0.2
			c-0.3-0.3-5.8-6.6-6.8-7.6c-0.3-0.4-0.7-0.8-1-1.2c-0.1-0.1-0.1-0.2,0-0.3c0.1-0.1,0.2-0.1,0.4,0c0.2,0.2,0.4,0.3,0.6,0.5
			c1.3,1.5,2.6,3,4,4.5c0.1,0.1,0.3,0.2,0.4,0.1c0.1-0.1,0.1-0.2,0-0.4c0-0.1-0.1-0.1-0.1-0.2c-0.3-0.4-0.6-0.8-0.9-1.2
			c-1-1.2-1.9-2.4-2.9-3.6c-0.3-0.4-0.6-0.8-0.9-1.2c-0.1-0.2-0.1-0.3,0.1-0.4c0.2-0.1,0.4-0.3,0.6-0.4c0.5-0.2,0.8-0.8,0.7-1.3
			c0-0.1,0-0.5-0.4-0.2c-0.4,0.3-0.8,0.6-1.1,0.9c-0.1,0.1-0.2,0.1-0.3,0c-0.1-0.1,0.1-0.4,0.1-0.5c0.4-0.4,0.8-0.9,1.2-1.3
			c0.2-0.2,0.2-0.4,0-0.6c-0.2-0.2-0.4-0.3-0.7-0.5c-0.1-0.1-0.3-0.1-0.4,0c0,0,0,0.1-0.1,0.1c-0.2,0.2-0.3,0.5-0.5,0.8
			c-0.3,0.4-0.5,0.7-0.8,1.1c0,0.1-0.2,0.2-0.3,0.1s-0.1-0.2,0-0.3c0.1-0.2,0.2-0.4,0.3-0.6c0.3-0.5,0.6-1,0.9-1.6
			c0-0.1,0-0.2,0-0.3c-0.2-0.2-0.6-0.2-0.8,0c0,0,0,0-0.1,0.1c-0.1,0.1-0.2,0.3-0.3,0.4c-0.4,0.6-0.8,1.1-1.3,1.7
			c-0.2,0.2-0.5,0.2-0.7,0.1c-0.1-0.1-0.1-0.2-0.2-0.3c-0.1-0.3,0-0.6,0.2-0.9c0.3-0.4,0.5-0.8,0.8-1.2c0,0,0-0.1,0-0.1
			c0,0-0.1-0.1-0.2-0.1c-0.3-0.1-0.7,0-1,0.2c-0.1,0.1-0.4,0.1-0.4,0c-0.1-0.1,0-0.3,0-0.4C25.4,19.1,25.8,18.9,26.2,19z M26.5,23.4
			c0.6-0.2,1.2-0.1,1.7,0.3c0.3,0.3,0.5,0.6,0.6,1c0.1,0.7-0.2,1.4-0.8,1.8c-0.5,0.3-1.1,0.3-1.7,0.1c-0.3-0.1-0.5-0.3-0.7-0.6
			c-0.5-0.8-0.4-1.8,0.4-2.3C26.1,23.5,26.3,23.4,26.5,23.4z M25,22c-0.2,0.6-0.7,1.1-1.3,1.2c-1,0.2-2-0.5-2.1-1.5
			c0-0.1,0-0.2,0-0.4c0.1-0.7,0.5-1.3,1.1-1.6c0.5-0.3,1.2-0.2,1.7,0.1C25,20.4,25.2,21.2,25,22z"/>
		<path id="Trazado_1358" d="M29.7,46.2c0.2-0.1,0.4-0.1,0.7,0c0.2,0.1,0.3,0.2,0.5,0.3c0,0,0.3,0.2,0.3-0.3c0-0.3,0-0.5-0.1-0.8
			c-0.1-0.6-0.7-1-1.3-1l-0.7,0.1c0,0-0.5,0.1-0.3,0.4c0.2,0.2,0.3,0.3,0.4,0.5c0.1,0.2,0.1,0.4,0.1,0.6
			C29.3,46.1,29.4,46.3,29.7,46.2z"/>
		<path id="Trazado_1359" d="M21.3,41.8c-0.2-0.2-0.5-0.1-0.7,0.1c-0.1,0.1-0.1,0.3-0.1,0.4c0,0.2,0,0.4,0.1,0.6
			c0.2,0.2,0.5,0.4,0.8,0.4c0.3,0.1,0.6,0,0.9-0.1c0.3-0.1,0.4-0.4,0.5-0.6c0.1-0.3,0.1-0.5,0.2-0.8c0-0.4,0-0.9-0.1-1.3
			c-0.2-0.6-0.7-1-1.3-1c-0.2,0-0.3,0-0.5,0c-0.2,0-0.3,0.1-0.5,0.2c-0.4,0.1-0.3-0.6-0.2-0.8c0.2-0.3,0.2-0.4,0.6-0.5
			c0.1,0,0.2,0,0.3-0.1c0.2-0.1,0.3-0.3,0.2-0.5c-0.1-0.1-0.2-0.2-0.3-0.2c-0.2,0-0.4,0-0.6,0.1c-0.2,0.1-0.5,0.3-0.7,0.2
			c-0.1,0-0.2-0.1-0.2-0.2c0-0.2,0.1-0.4,0.2-0.5c0.1-0.2,0.2-0.2,0.4-0.4c0.1-0.2,0.1-0.5-0.1-0.7c-0.2-0.1-0.4,0-0.6,0.2
			c-0.1,0.2-0.2,0.3-0.4,0.4c-0.2,0.2-0.5,0.3-0.7,0.1c-0.1-0.2,0.2-0.6,0.3-1c0-0.2,0-0.3,0-0.5c-0.1-0.1-0.2-0.2-0.4-0.2
			c-0.2,0-0.4,0-0.6,0.1c-0.1,0.1-0.2,0.6-0.2,0.8c0,0.2-0.1,0.3-0.2,0.5c-0.2,0.1-0.4,0.1-0.6,0c-0.1-0.1-0.2-0.2-0.3-0.3
			c-0.1-0.2-0.1-0.3-0.1-0.6s-0.2-0.5-0.5-0.5c-0.2,0-0.4,0.2-0.4,0.4c0,0.2,0.1,0.3,0.1,0.5c0.1,0.1,0.1,0.3,0.1,0.5
			c-0.1,0.3-0.3,0.5-0.6,0.5c0,0-0.1,0-0.1,0c-0.2-0.1-0.4-0.2-0.5-0.4c-0.1-0.1-0.2-0.3-0.2-0.5c-0.2-0.2-0.5-0.3-0.7-0.1
			c0,0,0,0,0,0c-0.1,0.1-0.1,0.3-0.1,0.5c0.1,0.2,0.2,0.3,0.3,0.4c0.1,0.1,0,0,0.1,0.1c0.4,0.2,0.5,0.7,0.2,1.1
			c-0.1,0.2-0.2,0.5-0.5,0.5c-0.2,0-0.3-0.1-0.4-0.2c-0.6-0.5-1-1.1-1.8-0.5c-0.2,0.1-0.3,0.3-0.3,0.5c0,0.2,0,0.4,0.2,0.5
			c0.1,0,0.2,0.1,0.3,0.1c0.4,0.1,0.5,0,0.9,0.1c0.1,0,0.2,0,0.3,0.1c0.1,0.1,0.1,0.2,0.1,0.3c0,0.1-0.1,0.2-0.2,0.2
			c-0.3,0-0.5,0-0.8,0c-0.4,0-0.9,0.2-1.1,0.5c-0.3,0.3-0.4,0.8-0.4,1.2c0,0.2,0.1,0.4,0.3,0.5c0.2,0,0.3-0.1,0.4-0.2
			c0.1-0.1,0.1-0.3,0.2-0.5c0.2-0.3,0.4-0.4,0.7-0.5c0.3-0.1,0.6-0.1,0.9,0l0.9,0c0.1,0,0.3,0,0.4,0c0.3-0.1,0.4-0.6,0.5-0.9
			c0.1-0.4,0.3-0.8,0.6-1.1c0.2-0.3,0.4-0.5,0.7-0.6c0.4-0.1,0.9-0.2,1.3-0.1c0.3,0,0.7,0.1,1,0.3c0.3,0.2,0.5,0.4,0.7,0.6
			c0.3,0.4,0.4,0.9,0.4,1.4c0,0.3-0.1,0.6,0,0.9s0.2,0.6,0.5,0.6c0.1,0,0.1,0,0.2-0.1c0.1-0.1,0.1-0.2,0.2-0.3
			c0.1-0.4,0.4-0.6,0.8-0.6c0.3,0,0.5,0.1,0.7,0.3c0.2,0.2,0.3,0.4,0.4,0.7c0.1,0.2,0.2,0.4,0.1,0.6c0,0.1-0.1,0.3-0.2,0.4
			c-0.1,0.1-0.2,0.2-0.4,0.1c-0.1,0-0.2-0.2-0.2-0.3C21.3,42.1,21.4,41.9,21.3,41.8z"/>
		<path id="Trazado_1360" d="M17.7,40.3c0-0.4-0.3-0.7-0.6-0.8c-0.4,0-0.8,0.4-0.8,0.8c0,0.4,0.4,0.8,0.8,0.8
			C17.4,41.1,17.7,40.7,17.7,40.3z M16.7,40.3c0-0.2,0.2-0.3,0.3-0.3c0.2,0,0.3,0.2,0.3,0.3c0,0.2-0.1,0.3-0.3,0.3
			C16.8,40.6,16.7,40.5,16.7,40.3C16.7,40.3,16.7,40.3,16.7,40.3L16.7,40.3z"/>
		<path id="Trazado_1361" d="M13.5,42.4c0-0.2-0.2-0.4-0.5-0.4c-0.2,0-0.4,0.2-0.4,0.5c0,0.2,0.2,0.4,0.4,0.4
			C13.3,42.9,13.5,42.6,13.5,42.4z M12.9,42.4c0-0.1,0.1-0.2,0.2-0.2c0.1,0,0.2,0.1,0.2,0.2c0,0.1-0.1,0.2-0.2,0.2
			C12.9,42.6,12.9,42.5,12.9,42.4L12.9,42.4z"/>
		<path id="Trazado_1362" d="M35,31.9c-0.1,0.1-0.1,0.1-0.3,0.3l0.5,0.6c0.1-0.1,0.2-0.2,0.3-0.3c0,0,0-0.1,0.1-0.1
			c0.1-0.1,0.2-0.3,0.3-0.3c0.1,0,0.2,0.1,0.4,0c0.3-0.1,0.4-0.6,0.5-0.8c0.1-0.4,0.2-0.7,0.3-1.1c0-0.1,0-0.4,0-0.4
			c-0.1-0.1-0.3,0.1-0.3,0.1c-0.2,0.2-0.5,0.4-0.8,0.5c-0.1,0-0.2,0.1-0.3,0.1c-0.3,0.2-0.5,0.5-0.4,0.8c0,0.1,0,0.1,0,0.2
			c0,0.1-0.1,0.2-0.2,0.3C35,31.8,35,31.9,35,31.9z"/>
		<path id="Trazado_1363" d="M44.7,30.4c-0.1-0.1-0.2-0.1-0.3-0.1c-0.3-0.1-0.6-0.3-0.8-0.5c-0.1-0.1-0.2-0.2-0.3-0.1
			c-0.1,0-0.1,0.3,0,0.4c0.1,0.4,0.2,0.7,0.3,1.1c0.1,0.2,0.2,0.7,0.5,0.8c0.2,0.1,0.3,0,0.4,0c0.1,0,0.2,0.1,0.3,0.3
			c0.1,0.1,0.1,0.1,0.1,0.1c0.1,0.1,0.1,0.2,0.2,0.2l0.6-0.5c-0.2-0.2-0.2-0.2-0.3-0.3c0,0-0.1-0.1-0.1-0.1
			c-0.1-0.1-0.1-0.2-0.2-0.3c0-0.1,0-0.1,0-0.2C45.2,30.9,45,30.6,44.7,30.4z"/>
		<path id="Trazado_1364" d="M64.4,3.8c1.3,0.2,7.3,0.7,7.4,0.7c0.6,0.1,1,0.5,1,1l0.7,7.9c0,0,0,0.1,0.1,0.1s0.1-0.1,0.1-0.1
			s0-8.8,0-8.8c0-0.5-0.4-0.9-0.9-0.9c0,0,0,0,0,0h-8.3C64.4,3.7,64.3,3.7,64.4,3.8C64.3,3.8,64.4,3.8,64.4,3.8z"/>
		<path id="Trazado_1365" d="M61.3,70.2c0.2,0.2,0.4,0.3,0.7,0.3h10.6c0.5,0,1-0.4,1-0.9c0,0,0,0,0-0.1V61c0-0.3-0.1-0.6-0.4-0.8
			L70,57c-0.3-0.1-0.2,0.3-0.2,0.3s2.5,2.9,2.5,2.9c0.4,0.5,0.6,1.1,0.6,1.8v6.7c0,0.6-0.5,1-1,1c0,0-8.8,0.3-8.8,0.2
			c-0.6,0-1.3-0.2-1.8-0.6l-1.8-1.6c-0.4-0.1-0.3,0.3-0.3,0.3L61.3,70.2z"/>
		<path id="Trazado_1366" d="M6.9,13.6C7,13.6,7,13.4,7,13.4l0.7-7.9c0-0.6,0.5-1,1-1c0,0,6-0.6,7.4-0.7c0,0,0.1,0,0.1-0.1
			S16,3.7,16,3.7H7.7c-0.5,0-0.9,0.4-0.9,0.9c0,0,0,0,0,0c0,0,0,8.8,0,8.8S6.8,13.5,6.9,13.6z"/>
		<path id="Trazado_1367" d="M10.7,57.2c0,0,0-0.3-0.2-0.3l-3.2,3.2C7,60.4,6.8,60.7,6.8,61v8.5c0,0.5,0.4,1,0.9,1c0,0,0,0,0.1,0
			h10.6c0.3,0,0.5-0.1,0.7-0.3l2.3-2.3c0,0,0.1-0.3-0.3-0.3l-1.8,1.6c-0.5,0.4-1.2,0.6-1.8,0.6c0,0-8.8-0.2-8.8-0.2s-1-0.1-1-1v-6.7
			c0-0.6,0.2-1.3,0.6-1.8C8.2,60.1,10.7,57.2,10.7,57.2z"/>
		<path id="Trazado_1368" d="M49.7,66.9c-1.5-0.6-2.7-1.9-3.3-3.4c-0.5-1.4-0.5-2.8,0.1-4.2c0.3-0.7,0.7-1.3,1.2-1.9
			c0,0,0.1-0.1,0.1-0.1l-3.1-3.2l0.4-0.4l3.2,3.2l-0.6,0.5c0,0,1.2,1.1,1.8,1.8c0,0.1-0.1,0.2,0,0.4c0.1,0.2,0.5,0.5,0.7,0.5
			c0.3,0.1,0.6,0.3,0.9,0.4c0.1,0,0.3,0.1,0.4,0s0-0.3-0.1-0.3c-0.2-0.2-0.3-0.5-0.3-0.7c0-0.1,0-0.2-0.1-0.3
			c-0.1-0.3-0.4-0.5-0.7-0.5c0,0-0.1,0-0.1,0c-0.6-0.6-1.8-1.8-1.9-1.8c0,0,0.1,0,0.1-0.1c0.5-0.3,1-0.6,1.6-0.8
			c1.6-0.6,3.2-1,4.8-1.2c0.7-0.1,2.4-0.2,3.2-0.2c4.5,0,6.7,0.1,9.2-1.4c4-2.6,6.6-6.9,7.3-11.6c0.4-2.6,0.4-5.2,0.1-7.9
			c-0.3-3.4-1.1-6.7-2.4-9.9l0,0l0,0c0-0.1-0.1-0.2-0.1-0.3c0-0.1-0.1-0.2-0.1-0.3c0.1-0.1,0.1-0.2,0.1-0.4c0-0.4-0.2-0.8-0.5-1
			c-0.2-0.2-0.5-0.4-0.7-0.6c-0.2-0.2-0.3-0.3-0.5-0.5c0,0-0.1-0.1-0.1-0.1s-0.1,0,0,0c0,0,0,0.1,0,0.1c0,0.3,0.1,0.5,0.1,0.8
			c0,0.4,0.1,0.9,0.2,1.3c0.1,0.3,0.4,0.6,0.7,0.7c0,0,0.1,0,0.1,0c0,0,0.1,0.1,0.1,0.2c0,0,0,0.1,0.1,0.2l0,0l0,0
			c1.4,4.1,2.2,8.4,2.1,12.8c-0.3-0.5-0.8-1.8-1-2.2c-0.7-1.5-1.7-2.9-3-4c0,0-0.1-0.1-0.3-0.2l0,0h0l-0.1-0.1
			c-0.1-0.1-0.3-0.2-0.2-0.4c0-0.2,0.2-0.6,0-0.8c-0.3-0.6-0.8-0.9-1.5-1.1c-0.5-0.1-1-0.2-1.5-0.4c-0.4-0.1-0.7-0.2-1.1-0.4
			c-0.1,0-0.2-0.1-0.3-0.1s-0.1,0,0,0.1c0,0.1,0.1,0.1,0.1,0.2c0.2,0.3,0.5,0.7,0.7,1c0.3,0.6,0.7,1.2,1.2,1.6
			c0.4,0.4,1,0.6,1.6,0.4c0.1,0,0.1,0,0.2-0.1c0,0,0.2-0.1,0.6,0.3c0,0,0.1,0.1,0.1,0.1c1.8,1.6,2.4,2.9,3.1,5.4
			c0.4,1.4,0.5,2.8,0.2,4.2c-0.2,1.1-0.4,2.3-0.8,3.4c-0.6,1.9-1.7,3.6-3.1,5c-0.7,0.5-1.4,0.9-2.1,1.3c-1.1,0.6-2.4,0.3-3.3-0.6
			c-0.4-0.4-1-0.9-1.6-1.6c-0.4-0.6-0.4-1.3,0-1.9c0.5-0.7,1-1.2,1.9-0.6c0.9,0.5,1.8,1,2.7,1.4c0.2,0.1,0.4,0.1,0.5-0.1
			c0.1-0.1,0.2-0.5,0-0.5c-0.5-0.2-0.9-0.4-1.3-0.8c-0.1-0.2-0.2-0.3-0.3-0.5c-0.2-0.2-0.2-0.5-0.2-0.8c0,0,0-0.1,0-0.1
			c0.1-0.1,0.2-0.1,0.3,0c0.1,0.1,0.1,0.2,0.2,0.2c0.1,0.2,0.3,0.4,0.4,0.6c0.1,0.2,0.3,0.3,0.5,0.5c0.3,0.1,0.6,0.2,0.8,0.4
			c0.2,0.1,0.5,0.1,0.8,0.1c0.6-0.1,1-0.6,0.9-1.2c0-0.2-0.1-0.4-0.3-0.6c-0.3-0.2-0.6-0.4-0.9-0.5c-0.2-0.1-0.4-0.2-0.6-0.4
			c-0.3-0.3-0.5-0.7-0.6-1.2c-0.1-0.5-0.1-0.9-0.2-1.4c0-0.3-0.2-0.9,0.2-1.1c0.2-0.1,0.3-0.1,0.5,0c0.1,0,0.2,0.1,0.2,0.1
			c0.5,0.3,0.9,0.5,1.3,0.9c0.4,0.3,0.3,0.2,0.6,0.5c0.3,0.3,0.6-0.3,0.7-0.4c0.1-0.2,1-1.5,1.1-1.6s0.2-0.5,0-0.6
			c-0.1-0.1-0.3-0.1-0.5,0c-0.2,0.3-0.7,0.9-0.9,1.1c-0.1,0.1-0.3,0.4-0.5,0.2c-0.2-0.2,0-0.5,0.1-0.6c0.4-0.5,0.6-0.8,0.9-1.4
			c0-0.1,0.1-0.1,0.1-0.2c0.1-0.4-0.6-0.9-0.8-0.5c-0.2,0.3-0.3,0.4-0.5,0.7c-0.2,0.3-0.4,0.6-0.6,0.8c0,0.1-0.1,0.3-0.4,0.1
			c-0.2-0.1-0.1-0.2-0.1-0.3c0.2-0.4,0.4-0.7,0.6-1.1c0.1-0.2,0.4-0.6,0.1-0.8c-0.2-0.1-0.4,0-0.5,0.2c-0.3,0.3-0.5,0.7-0.7,1
			c-0.5,0.9-0.6,1.2-1.1,0.9c-0.2-0.1-0.4-0.3-0.7-0.4c-0.2-0.2-0.3-0.5-0.1-0.7c0.2-0.4,0.5-0.7,0.7-1.1c0.2-0.3,0.3-0.5,0.4-0.8
			c0-0.1,0.1-0.4-0.1-0.5c-0.1-0.1-0.3-0.1-0.5,0c-0.1,0.1-0.2,0.2-0.3,0.3c-0.2,0.3-0.6,1-0.7,1.1c-0.1,0.1-0.3,0.1-0.5,0
			s-0.1-0.2-0.1-0.3c0-0.1,0.3-0.7,0.6-1.2c0.1-0.2,0.1-0.5-0.1-0.6c0,0,0,0-0.1,0c-0.2-0.2-0.5-0.1-0.7,0.1c0,0,0,0,0,0
			c-0.4,0.7-0.3,0.8-0.7,1.5c-0.1,0.2-0.2,0.1-0.4,0.1c-0.1,0-0.2-0.2-0.2-0.3c0,0,0,0,0-0.1c0.1-0.2,0.2-0.5,0.3-0.7
			c0.1-0.3,0.2-0.6-0.1-0.7s-0.3-0.1-0.5,0.2c-0.3,0.4-0.6,1.2-0.7,1.4s-0.4,0.7,0,0.8c0.6,0.2,1.2,0.4,1.8,0.8
			c0.2,0.1,0.3,0.4,0.4,0.6c0,0.1,0,0.1-0.1,0.1c-0.1,0-0.1,0-0.2,0c-0.5-0.2-1-0.4-1.5-0.5c-1.2-0.1-2.5,0.4-3.4,1.2
			c-0.3,0.3-0.3,0.4,0.1,0.6c0.2,0.1,0.5,0.2,0.7,0.3c-0.1,0.1-0.2,0.2-0.3,0.3c-0.2,0.2-0.5,0.4-0.7,0.7c-0.2,0.3-0.2,0.4,0.1,0.5
			c0.3,0.1,0.6,0.2,0.9,0.3c-0.1,0.1-0.1,0.2-0.2,0.2c-0.6,0.5-1.1,1.1-1.7,1.6c-0.2,0.2-0.5,0.3-0.8,0.3l-0.5-0.5
			c-0.1-0.1-0.2-0.2-0.2-0.4c0-0.1,0-0.3,0-0.4c0.1-1-0.7-1.9-1.7-1.9c0,0,0,0,0,0c-0.5-0.1-1-0.2-1.5-0.4c-0.2-0.1-0.5-0.2-0.7-0.3
			c0.4,0.6,0.7,1.4,0.8,2.1c0.1,0.3,0.2,0.6,0.3,0.8c0.3,0.5,0.8,0.9,1.4,0.9c0.1,0,0.3,0,0.4,0.1c0.2,0.1,0.3,0.2,0.5,0.3
			c1.5,1.5,3.4,3.4,5.1,5c0.2,0.2,0.3,0.3,0.5,0.5c0.1,0.1,0.2,0.2,0.3,0.3c0.3,0.2,0.4,0.6,0.3,1c-0.1,0.4-0.5,0.6-0.9,0.7
			c-1.2,0.3-2.9-0.2-4.1-0.4c-0.9-0.1-1.9-0.2-2.8-0.1c0-0.1-0.1-0.2-0.1-0.3c-0.1-0.2-0.2-0.5-0.3-0.7v0c0,0,0.1,0,0.1,0
			c0.2-0.1,0.4-0.3,0.5-0.4c0.1-0.1,0.1-0.1,0.2-0.2c0.1-0.1,0.2-0.2,0.2-0.4c0-0.2,0-0.5-0.2-0.6c0,0-0.1,0-0.1-0.1
			c-0.2-0.1-0.4-0.2-0.6-0.2c-0.1-0.1-0.3-0.1-0.4-0.1c-0.1,0-0.1,0-0.1,0.1c0,0.1,0,0.1-0.1,0.2c-0.1,0.1,0,0.2,0.1,0.3
			c0,0,0,0,0,0c0.1,0.1,0.3,0.2,0.4,0.2c0.1,0.1,0.2,0.1,0.1,0.2c-0.1,0.1-0.2,0.2-0.3,0.3c-0.1,0.1-0.2,0.1-0.2,0.2
			c-0.2,0.1-0.4,0.2-0.6,0.2c-0.1,0-0.1,0-0.2,0c-0.1,0-0.1-0.1-0.1-0.2c0,0,0-0.1,0-0.1c0-0.1,0-0.2,0-0.3c0-0.1,0-0.2-0.1-0.2
			c0,0-0.2,0-0.2,0c-0.1,0-0.2,0-0.3,0.2c0,0.2-0.1,0.4-0.1,0.5c0,0.1,0,0.2-0.1,0.3h0c0,0,0,0,0,0.1c0,0.3,0.2,0.5,0.4,0.6
			c0.1,0,0.3,0,0.4,0c0,0,0.1,0,0.1,0c0.1,0,0.3-0.1,0.4-0.1c0,0,0.1,0,0.1,0c0.1,0.3,0.3,0.5,0.4,0.7c-0.8,0.1-1.6,0.2-2.3,0.3
			c-1.3,0.2-2.5,0.3-3.8,0.1c-1.6-0.2-1.9-0.6-2.3-1.9c0-0.2-0.1-0.4-0.1-0.6c0-0.3-0.2-0.5-0.4-0.6c-0.3-0.2-0.5-0.1-0.7,0.3
			c-0.1,0.3-0.1,0.7,0,1c0.2,0.5,0.2,0.9,0.3,1.4c-0.2,0.7-0.7,1.2-1.4,1.4c-0.5,0.1-1,0.1-1.5,0.1c-0.3,0-0.6-0.2-0.8-0.4
			c-0.1-0.2-0.1-0.5-0.2-0.7c-0.1-0.4,0.2-0.9,0.5-1.1c0.2-0.1,0.5-0.2,0.6-0.4c0.1-0.2,0-0.5-0.2-0.6c0,0,0,0,0,0
			c-0.2-0.2-0.5-0.2-0.8-0.2c-0.1,0-0.2,0.1-0.4,0.1s-0.2-0.1-0.4-0.1c-0.3-0.1-0.6,0-0.8,0.2c-0.2,0.1-0.3,0.4-0.2,0.6c0,0,0,0,0,0
			c0.1,0.2,0.4,0.3,0.6,0.4c0.4,0.2,0.6,0.7,0.5,1.1c0,0.2-0.1,0.5-0.2,0.7c-0.2,0.2-0.5,0.4-0.8,0.4c-0.5,0.1-1,0-1.5-0.1
			c-0.7-0.2-1.2-0.7-1.4-1.4c0-0.5,0.1-1,0.3-1.4c0.1-0.3,0.1-0.7,0-1c-0.1-0.3-0.3-0.4-0.7-0.3c-0.2,0.1-0.4,0.4-0.4,0.6
			c0,0.2-0.1,0.3-0.1,0.6c-0.3,1.4-0.6,1.7-2.3,1.9c-1.3,0.2-2.6,0.2-3.8-0.1c-0.9-0.2-1.7-0.3-2.6-0.3c0.2-0.2,0.3-0.4,0.3-0.5
			c0.2-0.3,0.7-0.1,0.9-0.4c0.1,0,0.3,0.1,0.4,0.1c0.3-0.1,0.3,0.2,0.3,0.2c0,0.1,0.1,0.2,0.1,0.3c0.4,0.6,0.7,0.2,0.7,0.2
			c0.2-0.2,0.3-0.4,0.2-0.7c0-0.1-0.1-0.2,0-0.2c0-0.1,0.2,0,0.2,0c0.3,0.3,0.7,0.4,1.2,0.3c0.4-0.1,0.7-0.3,0.9-0.6
			c0.2-0.2-0.1-0.2-0.1-0.2c-0.1,0-0.2-0.1-0.2-0.1c-0.1-0.1-0.1-0.2-0.2-0.4c0-0.3-0.1-0.7-0.2-1c-0.2-0.5-0.6-0.8-1.2-0.9
			c-0.3,0-0.7,0-1,0.2h0v0c0,0,0,0-0.1,0c0,0,0,0,0,0l0,0l0,0h0h0l0,0l0,0c0,0,0,0,0,0c0,0,0,0,0-0.1v0v0c0.1-0.3,0.1-0.7,0-1
			c-0.2-0.5-0.7-0.8-1.2-0.9c-0.3-0.1-0.7-0.1-1,0c-0.1,0-0.3,0-0.4-0.1c-0.1,0-0.1-0.1-0.2-0.2c0,0-0.1-0.2-0.2,0
			c-0.2,0.3-0.3,0.7-0.3,1.1c0.1,0.4,0.3,0.8,0.6,1c0,0,0.2,0.1,0,0.2c-0.1,0-0.2,0-0.2,0c-0.3,0-0.5,0.2-0.6,0.4
			c0,0-0.3,0.4,0.4,0.6c0.1,0,0.2,0,0.3,0c0,0,0.3-0.1,0.3,0.2c0,0.2,0.1,0.3,0.2,0.4c-0.3,0.5,0.2,0.5-0.3,1.1
			c-0.2,0.2-0.4,0.5-0.5,0.7c-0.8,0-1.6,0-2.3,0.1c-1.2,0.2-3,0.7-4.1,0.4c-0.4-0.1-0.7-0.3-0.9-0.7c-0.1-0.4,0-0.7,0.3-1
			c0.1-0.1,0.2-0.2,0.3-0.3c0.1-0.2,0.3-0.3,0.5-0.5c1.6-1.6,3.6-3.5,5.1-5c0.1-0.1,0.3-0.3,0.5-0.3c0.1,0,0.3-0.1,0.4-0.1
			c0.6,0,1.2-0.3,1.4-0.9c0.1-0.3,0.2-0.5,0.3-0.8c0.1-0.8,0.4-1.5,0.8-2.1c-0.2,0.1-0.4,0.2-0.7,0.3c-0.5,0.2-1,0.3-1.5,0.4
			c-1,0.1-1.8,0.9-1.7,1.9c0,0,0,0,0,0c0,0.1,0,0.3,0,0.4c0,0.1-0.1,0.3-0.2,0.4l0,0c-0.5,0.5-1.5,1.5-2.5,2.5
			c-0.1,0.1-0.3,0.1-0.5,0.1c-0.2-0.1-0.3-0.2-0.4-0.4c-0.5-0.8-0.8-1.6-0.9-2.5c0-0.1,0-0.2-0.1-0.2c0-0.1-0.1-0.1-0.1-0.1
			c-0.3-0.3-0.7-0.4-0.8-0.8c0-0.1,0-0.2,0-0.3c0-0.4-0.1-0.8-0.2-1.1c-0.1-0.3-0.2-0.6-0.4-0.8c-0.5-0.4-1.1-0.5-1.7-0.3
			c-0.4,0.1-0.7,0.3-0.9,0.6c-0.2,0.3-0.3,0.6-0.2,0.9c0,0.2,0,0.4,0,0.6c-0.1,0.4-0.5,0.7-1,0.6c-0.2,0-0.3-0.1-0.5-0.2
			c-0.6-0.2-1.2-0.1-1.7,0.2c-0.1,0.1-0.2,0.1-0.2,0.2c-0.1,0.1-0.1,0.2-0.1,0.3c-0.1,0.4,0,0.7,0.1,1.1c0.1,0.2,0.1,0.4,0.3,0.5
			c0.1,0.2,0.3,0.2,0.5,0.1c0.5-0.3-0.4-0.8-0.2-1.4c0.1-0.5,0.9-1.1,1.3-0.5c0.1,0.1,0.1,0.2,0.2,0.3c0,0.1,0.1,0.3,0.2,0.3
			c0.1,0,0.2-0.1,0.3-0.2c0.4-0.3,0.9-0.5,1.4-0.6c0.1,0,0.1,0,0.2-0.1c0.1-0.1,0.1-0.2,0.1-0.4c-0.1-0.4-0.1-0.9-0.1-1.3
			c0-0.1,0-0.2,0.1-0.2c0.1-0.1,0.2-0.2,0.4-0.3c0.3-0.1,0.6-0.2,0.9-0.1c0.4,0.1,0.7,0.4,0.9,0.8c0.1,0.4,0.1,0.8,0,1.2
			c-0.1,0.1-0.1,0.3,0,0.4c0,0,0.1,0.1,0.1,0.1c0.4,0.2,0.7,0.6,1,1c0.1,0.3,0.2,0.6,0.2,0.9c0,0.4,0,0.9-0.1,1.3
			c-0.1,0.5-0.3,0.9-0.6,1.3c-0.6,0.7-1.5,1.2-2.5,1.3c-0.5,0.1-1,0-1.4-0.1c0,0-0.3-0.2,0.2-0.4c0,0,2.6-1.4,2.4-3.4
			c0,0-0.2-1.7-1.5-0.7l-0.6,0.4c-0.3,0.2-0.5,0.4-0.9,0.6c-0.2,0.1-0.5,0.3-0.6,0.4c-0.3,0.2-0.6,0.2-0.9,0.1
			c-0.3,0-0.7-0.1-0.7,0.3v0.6c0,0,0,0.5,0.5,0.4c0.8-0.2,1.6-0.6,2.3-1.1l1-0.9c0,0,0.6-0.7,0.6,0.2c-0.1,1.3-1.2,2.4-2.5,2.6
			c-0.2,0-0.4,0-0.5,0.1c-0.4,0.1-0.5,0.5-0.2,0.8c0.7,0.5,1.6,0.8,2.5,0.9c0.5,0,1-0.1,1.5-0.3c0.2-0.1,0.4-0.1,0.7-0.1
			c0.2,0.1,0.4,0.1,0.5,0.2c-0.6,0.6-1.1,1-1.4,1.3c-0.8,0.9-2.2,1.1-3.3,0.6c-2.7-1.1-4.6-3.5-5.3-6.3c-0.4-1.1-0.6-2.2-0.8-3.4
			c-0.2-1.4-0.1-2.8,0.2-4.2c0.7-2.5,1.3-3.8,3.1-5.4c0,0,0.1,0,0.2-0.1c0.3-0.3,0.5-0.2,0.5-0.2c0.1,0,0.2,0.1,0.2,0.1
			c0.6,0.1,1.2-0.1,1.6-0.4c0.5-0.5,0.9-1,1.2-1.6c0.2-0.4,0.4-0.7,0.7-1c0-0.1,0.1-0.1,0.1-0.2l0-0.1c-0.1,0-0.2,0.1-0.3,0.1
			c-0.4,0.1-0.7,0.3-1.1,0.4c-0.5,0.1-1,0.2-1.5,0.4c-0.6,0.1-1.2,0.5-1.5,1.1c-0.1,0.2,0,0.6,0,0.8c0,0.1,0,0.2-0.1,0.3
			c-0.2,0.1-0.4,0.3-0.6,0.4c-1.2,1.1-2.3,2.5-3,4c-0.2,0.4-0.7,1.7-1,2.2c0-4.5,0.7-8.9,2.2-13.1v0c0,0,0.1,0,0.1,0
			c0.3-0.1,0.6-0.3,0.7-0.7c0.1-0.4,0.2-0.8,0.2-1.3c0-0.3,0-0.5,0.1-0.8c0,0,0-0.1,0-0.1l0,0c0,0-0.1,0.1-0.1,0.1
			c-0.2,0.2-0.3,0.4-0.5,0.5c-0.2,0.2-0.5,0.4-0.7,0.6c-0.3,0.2-0.5,0.6-0.5,1c0,0.1,0,0.3,0.1,0.4c0,0.1,0,0.1,0,0.2
			C6.9,26.8,6,30.2,5.7,33.7c-0.3,2.6-0.2,5.3,0.1,7.9c0.7,4.7,3.3,8.9,7.3,11.6c2.5,1.5,4.7,1.5,9.2,1.4c0.8,0,2.5,0.1,3.2,0.2
			c1.7,0.2,3.3,0.6,4.8,1.2c0.6,0.2,1.1,0.5,1.6,0.8c0,0,0.1,0,0.1,0.1c0,0-1.2,1.2-1.9,1.8c0,0-0.1,0-0.1,0c-0.3,0-0.6,0.2-0.7,0.5
			c0,0.1-0.1,0.2-0.1,0.3c0,0.3-0.2,0.5-0.3,0.7c0,0.1-0.1,0.3-0.1,0.3s0.3,0,0.4,0c0.3-0.1,0.6-0.3,0.9-0.4
			c0.1-0.1,0.6-0.3,0.7-0.5c0-0.1,0-0.2,0-0.4c0.6-0.7,1.8-1.8,1.8-1.8L32,56.9l3.2-3.1l0.4,0.4l-3,3.2c0.1,0.1,0.1,0.1,0.1,0.1
			c0.5,0.5,1,1.2,1.2,1.9c0.5,1.3,0.6,2.8,0.1,4.2c-0.6,1.6-1.8,2.8-3.3,3.4c0,0-1.9,0.6-3,0.9c-0.8,0.2-1.7,0.4-2.5,0.6
			c9.5,4.5,20.5,4.5,30,0c-0.8-0.1-1.7-0.4-2.5-0.6C51.6,67.5,49.7,66.9,49.7,66.9z M67.5,43.8c0.4,0,0.7,0.3,0.8,0.7
			c0,0.3-0.2,0.6-0.5,0.6c-0.4,0-0.8-0.3-0.8-0.8C66.9,44,67.2,43.8,67.5,43.8z M63.5,43C63.5,43,63.5,43.1,63.5,43
			c0,0.1,0,0.1,0,0.1c0,0,0,0,0,0c-0.1,0.1-0.3,0.1-0.4,0.1c-0.2,0-1.6-0.2-1.4-0.6c0.1-0.2,0.4-0.4,0.5-0.3c0.3,0.1,0.7,0.2,1,0.3
			c0.1,0,0.2,0.1,0.4,0.2C63.6,42.8,63.6,42.9,63.5,43L63.5,43z M64.6,39.3c0.6,0.2,0.7,0.7,0.7,1.3c0,1.2-0.8,1.5-1.8,1.3
			c-0.7-0.1-1.2-0.8-1.1-1.5c0,0,0,0,0,0c0.1-0.5,0.6-0.9,1.1-1.1C63.8,39.2,64.2,39.2,64.6,39.3L64.6,39.3z M59.5,38.8
			c0.6-1.1,3.8-1.2,4.5-0.1C62.6,39.2,61,39.3,59.5,38.8L59.5,38.8z M59.4,40.4c0.3-0.4,0.6-0.9,1.1-1c0.1,0.3-0.3,1.1-0.5,1.1
			C59.8,40.5,59.6,40.5,59.4,40.4L59.4,40.4z M57.8,43.8c0.6-0.4,1.2-0.9,1.8-1.3c0.1-0.1,0.2-0.1,0.3,0c0.1,0.1,0,0.2-0.1,0.3
			c-0.3,0.5-0.7,0.9-1.1,1.3C58.3,44.4,58.2,44.3,57.8,43.8L57.8,43.8z M58.9,44.8c0.6-0.6,1.2-1.1,1.8-1.5c0.1,0,0.1,0,0.1,0.1
			c0,0.1-0.1,0.2-0.1,0.3c-0.4,0.5-0.7,0.9-1.1,1.3C59.3,45.4,59.1,45.4,58.9,44.8L58.9,44.8z M60.1,46.3l-0.4-0.4
			c0-0.1,0-0.2,0-0.2c0.3-0.3,0.7-0.6,1.1-0.9c0.1-0.1,0.1,0,0.1,0C61.3,45.2,60.5,45.9,60.1,46.3L60.1,46.3z M60.9,41.9
			c-0.1-0.1-0.2-0.2-0.2-0.4c0.1-0.3,0.2-0.7,0.3-1c0-0.1,0.1-0.2,0.3-0.2c0.1,0,0.1,0.1,0.2,0.2c0.1,0.2,0.1,0.5,0.1,0.8
			c0,0.2,0,0.4-0.1,0.5C61.3,41.9,61.1,42,60.9,41.9L60.9,41.9z M27.5,47.6c0,0,0.9-0.3,0.9-0.3c0.1-0.1,0.2-0.1,0.2,0
			s0.1,0.2,0,0.2c0,0-0.1,0.9-0.1,0.9c-0.1,0.5-0.3,0.6-0.3,0.6c-0.6,0-1.1-0.4-1.3-1C27,48,27,47.8,27.5,47.6L27.5,47.6z
			 M19.7,45.5c0.3-0.2,0.8,0,1,0.4l-0.4,0.4c-0.2,0-0.3,0-0.5-0.1l0,0c0,0-0.1,0-0.1,0c-0.1-0.1-0.1-0.1-0.1-0.2
			C19.5,45.8,19.6,45.6,19.7,45.5L19.7,45.5z M18.4,47.1c0-0.5,0.8-0.2,1,0L19,47.6l0,0c-0.1,0-0.2-0.1-0.3-0.1
			C18.5,47.4,18.4,47.3,18.4,47.1L18.4,47.1z M40.2,52c0,0,0-0.1,0-0.3C40.2,51.9,40.2,52,40.2,52c0.7,0.3,1.4,0.5,2.2,0.6
			c-1.2,1.2-3.2,1.2-4.4,0C38.8,52.5,39.5,52.3,40.2,52L40.2,52z M41.4,59.2c0,0.4-0.1,0.8-0.4,1.1c-0.1,0.1-0.1,0-0.2,0
			c-0.1,0-0.1-0.1-0.2-0.1c-0.1,0-0.2,0-0.4,0c-0.1,0-0.2,0-0.3,0c-0.1,0-0.1,0-0.2,0.1c0,0-0.1,0-0.1,0.1c-0.1,0-0.2,0-0.2-0.1
			C39.2,60,39,59.6,39,59.2c0-0.6,0.3-1.3,0.8-1.7c0.4-0.3,0.5-0.3,0.9,0C41.1,57.9,41.4,58.5,41.4,59.2L41.4,59.2z M36,64.1
			c0,0.1-0.1,0.1-0.1,0.2c-0.1,0.1-0.2,0.3-0.4,0.4c-0.1,0.1-0.1,0.1-0.2,0.2c-0.1,0-0.2,0-0.3,0c-0.1-0.1-0.1-0.2-0.1-0.3
			c0-0.1,0-0.2,0.1-0.3c0.2-1,0.7-2,1.4-2.7c0.2-0.2,0.8-0.5,1.1-0.2c0.1,0.2,0,0.6-0.1,0.8c-0.1,0.2-0.2,0.4-0.3,0.6
			c-0.1,0.1-0.1,0.1-0.2,0.1c-0.1,0-0.1,0.1-0.2,0.1c-0.1,0.1-0.2,0.2-0.3,0.3c0,0-0.1,0-0.1,0.1c-0.1,0.1-0.2,0.2-0.2,0.3
			C36.1,63.9,36,64,36,64.1L36,64.1z M37.3,67.9c0,0.1-0.1,0.2-0.1,0.3c0,0.1,0,0.2-0.1,0.3c0,0.3-0.1,0.8-0.5,0.4
			c-0.2-0.2-0.3-0.5-0.4-0.8c-0.1-0.3-0.1-0.7,0-1c0.1-0.2,0.2-0.3,0.3-0.4c0.2-0.1,0.3-0.3,0.5-0.4c0.1,0.1,0.1,0.3,0.2,0.4
			c0.1,0.2,0.2,0.4,0.2,0.6C37.6,67.6,37.4,67.8,37.3,67.9L37.3,67.9z M43,65.7c0,0.3-0.1,0.7-0.2,1c-0.3,1.3-0.5,1.7-0.9,1.9
			c-0.1,0-0.6,0.3-0.7,0.4c-0.3,0.2-0.6,0.3-1,0.4c0,0.3-0.1,0.6-0.1,0.6c0,0.1-0.1,0.2-0.2,0.2c0,0-0.1,0-0.1-0.1
			c0-0.1-0.1-0.1-0.1-0.2c0-0.1-0.1-0.1-0.1-0.2c-0.1-0.2-0.1-0.4-0.2-0.6c0-0.1-0.1-0.3-0.1-0.4c0-0.1,0.5-0.2,0.5-0.2
			c0.2-0.1,0.4-0.1,0.7-0.2c0.8-0.2,1.3-0.9,1.3-1.7c0.2-0.9,0.2-1.9,0-2.8c-0.1-0.7-0.6-1.2-1.3-1.4c-1-0.2-1.8,0.2-2.1,1.5
			c-0.3,1,0,2,0.8,2.7c0.4,0.2,0.7,0.3,0.9,0c0.2-0.4,0.3-0.8,0.3-1.3c0,0,0-0.1,0-0.1c-0.1,0-0.3,0-0.4,0c0,0-0.1,0.1-0.1,0.2
			c0,0.1,0,0.1,0,0.2c0,0.2-0.1,0.3-0.3,0.3c-0.1,0-0.2,0-0.3-0.1c-0.2-0.2-0.3-0.6-0.3-0.9c0-0.3,0.1-0.5,0.2-0.7
			c0.2-0.5,0.8-0.8,1.3-0.7c0.4,0.1,0.6,0.5,0.6,1c0,0.6,0,1.3,0,1.9c0,0.5-0.3,0.9-0.7,1.2c-0.4,0.2-0.8,0.4-1.2,0.4
			c-0.3,0-0.5-0.1-0.7-0.3c-0.8-0.8-1.3-1.9-1.3-3.1c0-0.7,0.2-1.4,0.5-2.1c0.2-0.3,0.4-0.6,0.6-0.9c0.6-0.9,1.4-0.8,2.1-0.7
			c1,0.1,1.2,0.6,1.7,1c0.6,0.7,0.9,1.7,0.8,2.6C43.1,64.9,43.1,65.3,43,65.7L43,65.7z M44.6,67.8c0,0.3-0.1,0.6-0.2,0.9
			c-0.3,0.4-0.4-0.1-0.5-0.3c0-0.1-0.1-0.2-0.1-0.3c0-0.1-0.1-0.2-0.2-0.3c-0.1-0.1-0.3-0.2-0.4-0.4c0-0.2,0-0.5,0.1-0.7
			c0-0.1,0-0.3,0-0.4c0.2,0.1,0.4,0.2,0.5,0.3c0.2,0.1,0.3,0.2,0.4,0.3C44.5,67.1,44.6,67.4,44.6,67.8L44.6,67.8z M45.6,64.8
			c-0.1,0.1-0.2,0.1-0.3,0c-0.1,0-0.2-0.1-0.2-0.2c-0.1-0.1-0.3-0.3-0.4-0.4c0-0.1-0.1-0.1-0.1-0.2c-0.1-0.1-0.1-0.2-0.2-0.4
			c-0.1-0.1-0.1-0.2-0.2-0.3c0,0-0.1,0-0.1-0.1c-0.1-0.1-0.2-0.2-0.3-0.3c-0.1,0-0.1-0.1-0.2-0.1c-0.1,0-0.2-0.1-0.2-0.1
			c-0.2-0.1-0.3-0.3-0.4-0.5c-0.1-0.2-0.3-0.6-0.1-0.8c0.2-0.3,0.9,0,1.1,0.1c0.8,0.7,1.3,1.6,1.6,2.6c0,0.1,0.1,0.2,0.1,0.3
			C45.7,64.6,45.7,64.7,45.6,64.8L45.6,64.8z"/>
	</g>
	<g id="Grupo_479" transform="translate(195.644 3055.87)">
		<path id="Trazado_1369" d="M14.2,9.4H6.7V3.8H5.5v12.8h1.2v-6.1h7.5v6.1h1.2V3.8h-1.2V9.4z"/>
		<path id="Trazado_1370" d="M27.5,5.5c-0.5-0.6-1.2-1.1-1.9-1.4c-1.6-0.7-3.5-0.7-5.1,0c-0.7,0.3-1.4,0.8-1.9,1.4
			c-0.5,0.6-0.9,1.4-1.2,2.1c-0.5,1.7-0.5,3.5,0,5.2c0.3,0.8,0.7,1.5,1.2,2.1c0.5,0.6,1.2,1.1,1.9,1.4c1.6,0.7,3.5,0.7,5.1,0
			c0.7-0.3,1.4-0.8,1.9-1.4c0.5-0.6,0.9-1.4,1.2-2.1c0.5-1.7,0.5-3.5,0-5.2C28.4,6.8,28,6.1,27.5,5.5z M27.9,10.2
			c0,0.7-0.1,1.5-0.3,2.2c-0.2,0.6-0.5,1.2-1,1.8c-0.4,0.5-0.9,0.9-1.5,1.2c-1.3,0.6-2.8,0.6-4.1,0c-0.6-0.3-1.1-0.7-1.5-1.2
			c-0.4-0.5-0.8-1.1-1-1.8C18,11,18,9.5,18.4,8c0.2-0.6,0.5-1.2,1-1.8c0.4-0.5,0.9-0.9,1.5-1.2c1.3-0.6,2.8-0.6,4.1,0
			c0.6,0.3,1.1,0.7,1.5,1.2c0.4,0.5,0.8,1.1,1,1.8C27.8,8.8,27.9,9.5,27.9,10.2L27.9,10.2z"/>
		<path id="Trazado_1371" d="M28.5,4.9h4.3v11.7H34V4.9h4.4V3.8h-9.9L28.5,4.9z"/>
		<path id="Trazado_1372" d="M40.8,10.5h7.1V9.4h-7.1V4.9h7.6V3.8h-8.8v12.8h8.8v-1.1h-7.6V10.5z"/>
		<path id="Trazado_1373" d="M51.1,3.8h-1.2v12.8h8.2v-1.1h-7L51.1,3.8z"/>
		<path id="Trazado_1374" d="M73.8,3.7h-1.4L68.4,9l-3.7-5.2l-0.1-0.1h-1.4l4.5,6.2l-4.8,6.6h1.5l4.1-5.6l4,5.6l0.1,0.1H74L69.2,10
			L73.8,3.7z"/>
		<path id="Trazado_1375" d="M81.9,14.9c-0.3,0.2-0.6,0.4-0.9,0.6c-0.5,0.2-1,0.4-1.6,0.4c-1.4,0-2.7-0.6-3.6-1.6
			c-0.4-0.5-0.8-1.1-1-1.8c-0.4-1.4-0.4-3,0-4.4c0.2-0.6,0.5-1.3,1-1.8c0.9-1.1,2.2-1.7,3.6-1.6c0.5,0,1,0.1,1.4,0.2
			c0.4,0.1,0.8,0.3,1.1,0.5L82,5.5l0.6-1l-0.2-0.1c-0.4-0.2-0.8-0.4-1.2-0.6c-0.6-0.2-1.3-0.3-2-0.3c-0.9,0-1.8,0.2-2.6,0.5
			c-0.7,0.3-1.4,0.8-1.9,1.4c-0.5,0.6-0.9,1.4-1.2,2.1c-0.5,1.7-0.5,3.5,0,5.2c0.3,0.8,0.7,1.5,1.2,2.1c0.5,0.6,1.2,1.1,1.9,1.4
			c0.8,0.4,1.7,0.5,2.6,0.5c0.7,0,1.4-0.1,2-0.4c0.4-0.2,0.8-0.4,1.2-0.7l0.2-0.1l-0.7-1L81.9,14.9z"/>
		<path id="Trazado_1376" d="M88.2,3.7l-5.2,12.8h1.3l1.6-4h5.6l1.6,4h1.3L89.4,3.7H88.2z M91.2,11.5h-4.8l2.4-6.2L91.2,11.5z"/>
		<path id="Trazado_1377" d="M106.9,10.5h7.1V9.3h-7.1V4.8h7.6V3.7h-8.8v12.8h8.9v-1.1h-7.7L106.9,10.5z"/>
		<path id="Trazado_1378" d="M115.7,3.7v1.1h4.4v11.7h1.2V4.8h4.4V3.7H115.7z"/>
		<path id="Trazado_1379" d="M103,10.1c0.7-0.7,1.1-1.7,1.1-2.7c0-0.7-0.1-1.3-0.4-1.9c-0.2-0.5-0.6-0.8-1-1.1
			c-0.4-0.3-0.8-0.4-1.3-0.5c-0.4-0.1-0.8-0.1-1.2-0.1h-5.5v12.8H96V11h3.1l3.9,5.4l0.1,0.1l1.5,0l-4-5.5
			C101.4,11,102.3,10.7,103,10.1z M101.4,9.7c-0.4,0.2-0.9,0.2-1.3,0.2H96V4.8h4.2c0.5,0,1,0.1,1.4,0.3c0.6,0.3,1,0.9,1.2,1.5
			c0.1,0.3,0.1,0.5,0.1,0.8c0,0.3-0.1,0.6-0.1,0.9c-0.1,0.3-0.3,0.6-0.5,0.8C102.1,9.4,101.8,9.6,101.4,9.7L101.4,9.7z"/>
	</g>
	<g id="Grupo_480" transform="translate(222.313 3073.068)">
		<path id="Trazado_1380" d="M11.7,15L7,3.8H5.5v12.8h1.2V6l4.4,10.5l0.1,0.1h1.1L16.6,6v10.6h1.2V3.8h-1.5L11.7,15z"/>
		<path id="Trazado_1381" d="M41.3,3.8h-1.4L36,9.1l-3.7-5.2l-0.1-0.1h-1.4l4.5,6.2l-4.8,6.6h1.5L36,11l4,5.5l0.1,0.1h1.5L36.8,10
			L41.3,3.8z"/>
		<rect id="Rectángulo_74" x="43.3" y="3.8" width="1.2" height="12.8"/>
		<path id="Trazado_1382" d="M71.8,7.6c-0.3-0.8-0.7-1.5-1.2-2.1c-0.5-0.6-1.2-1.1-1.9-1.4c-1.6-0.7-3.5-0.7-5.2,0
			c-0.7,0.3-1.4,0.8-1.9,1.4c-0.5,0.6-0.9,1.4-1.2,2.1c-0.5,1.7-0.5,3.5,0,5.2c0.3,0.8,0.7,1.5,1.2,2.1c0.5,0.6,1.2,1.1,1.9,1.4
			c0.8,0.4,1.7,0.5,2.6,0.5c0.9,0,1.8-0.2,2.6-0.5c0.7-0.3,1.4-0.8,1.9-1.4c0.5-0.6,0.9-1.4,1.2-2.1C72.4,11.1,72.4,9.3,71.8,7.6z
			 M71,10.2c0,0.7-0.1,1.5-0.3,2.2c-0.2,0.6-0.5,1.2-1,1.8c-0.4,0.5-0.9,0.9-1.5,1.2c-1.9,0.9-4.3,0.5-5.7-1.2
			c-0.4-0.5-0.8-1.1-1-1.8c-0.4-1.4-0.4-2.9,0-4.4c0.2-0.6,0.5-1.3,1-1.8c1.4-1.6,3.7-2.1,5.7-1.2c0.6,0.3,1.1,0.7,1.5,1.2
			c0.4,0.5,0.8,1.1,1,1.8C70.9,8.7,71.1,9.5,71,10.2L71,10.2z"/>
		<path id="Trazado_1383" d="M21.3,10.5h7.1V9.4h-7.1V6H20v10.6h8.9v-1.1h-7.7V10.5z"/>
		<rect id="Rectángulo_75" x="20" y="3.8" width="8.8" height="1.1"/>
		<path id="Trazado_1384" d="M56.4,13.2c-0.2,0.5-0.5,1-0.9,1.4c-0.4,0.4-0.8,0.7-1.3,0.9c-0.5,0.2-1,0.4-1.6,0.4
			c-1.4,0-2.7-0.6-3.6-1.6c-0.4-0.5-0.8-1.1-1-1.8c-0.4-1.4-0.4-2.9,0-4.4c0.2-0.6,0.5-1.2,1-1.8c0.9-1.1,2.2-1.7,3.6-1.6
			c0.5,0,1,0.1,1.4,0.2c0.4,0.1,0.8,0.3,1.2,0.6c0.4,0.3,0.7,0.6,0.9,1c0.2,0.3,0.3,0.6,0.4,0.9h1.2l0,0c-0.1-0.3-0.2-0.5-0.3-0.8
			c-0.1-0.3-0.3-0.7-0.6-1c-0.3-0.4-0.6-0.7-0.9-1c-0.4-0.3-0.9-0.6-1.4-0.7c-0.6-0.2-1.3-0.3-2-0.3c-0.9,0-1.8,0.2-2.6,0.5
			c-0.7,0.3-1.4,0.8-1.9,1.4c-0.5,0.6-0.9,1.4-1.2,2.1c-0.5,1.7-0.5,3.5,0,5.2c0.3,0.8,0.7,1.5,1.2,2.1c0.5,0.6,1.2,1.1,1.9,1.4
			c0.8,0.4,1.7,0.5,2.6,0.5c1.4,0,2.7-0.5,3.7-1.5c0.5-0.5,0.9-1.1,1.2-1.7c0.3-0.6,0.4-1.2,0.5-1.9h-1.2
			C56.7,12.3,56.6,12.8,56.4,13.2z"/>
	</g>
</g>
</svg>
